<svg version="1.2" xmlns="http://www.w3.org/2000/svg" viewBox="0 0 400 400" width="400" height="400">
	<style>
		.s0 { fill: #d4d4d6 } 
	</style>
	<g id="svgg">
		<path id="path0" fill-rule="evenodd" class="s0" d="m322.95 22.38c2.54 0.97 2.75 4.16 1.07 15.62-5.45 36.99 3.21 59.86 31.03 81.98 11 8.74 11.2 8.92 12.31 10.6 1.29 1.96 1.31 3.06 0.09 4.48-1.49 1.73-4.47 1.71-16.65-0.11-34.37-5.14-58.97 4.09-79 29.65-12.23 15.59-13.64 16.8-16.39 14.05-1.6-1.61-1.61-3.12-0.05-14.36 2.52-18.23 1.73-25.31-4.21-37.88-8.98-18.97-22.16-28.38-55.35-39.53-23.74-7.97-51.13-7.62-73.13 0.95-3.01 1.17-4.08 1.43-4.6 1.11-3.65-2.29 7.67-20.57 20.17-32.56 10.02-9.6 27.26-20.74 34.7-22.4 8.6-1.93 44.22 8.08 68.47 19.22 15.73 7.24 39.78 5.86 53.44-3.06 3.76-2.46 9.28-8.48 17.54-19.14 4.61-5.94 6.27-7.74 7.81-8.43 1.47-0.66 1.51-0.66 2.75-0.19zm-174.66 10.16c7.86 0.1 7.86 1.47 0 6.33-30.92 19.1-48.28 46.8-48.29 77.04 0 15.86 4.49 27.2 15.41 38.88 8.42 9 5.75 9.51-9.4 1.79-27.95-14.25-46.72-37.44-50.96-62.98-1.84-11.11-0.77-14.63 7.37-24.2 18.63-21.88 42.38-33.13 77.18-36.56 2.09-0.2 6-0.34 8.69-0.31zm-97.15 71.1c10.03 37.73 47.44 66.61 97.85 75.56 3.32 0.59 6.59 1.53 10.6 3.06 6.14 2.35 15.48 5.52 26.41 8.98 53.76 17.03 79.41 46 81.8 92.37 0.61 11.78-2.31 28.8-4.94 28.8-0.88 0-1.24-0.92-3.07-7.8-7.72-29.1-35.61-53.98-75.12-67.03-8.11-2.67-10.06-3.2-20.07-5.4-2.81-0.62-7.45-2.1-11.2-3.57-6.7-2.63-14.59-5.29-28-9.43-52.72-16.31-79.13-46.93-81.23-94.17-0.42-9.57 1.04-21.89 3.06-25.85 1.5-2.95 2.13-2.24 3.91 4.48zm153.21 150.15c31.52 15.85 50.77 41.13 53.06 69.65 0.35 4.34-0.12 5.81-3.41 10.68-17.24 25.51-53.4 43.19-89.2 43.62-9.06 0.1-8.98-0.31 1.4-7.25 29.56-19.76 44.86-44.47 45.32-73.19 0.3-18.94-3-28.94-13.51-40.89-2.89-3.29-3.76-4.64-3.47-5.4 0.44-1.14 4.04-0.13 9.81 2.78zm-167.69 21.14c19.02 25.3 46.24 43.2 78.31 51.49 25.14 6.49 56.48 4.71 74.29-4.24 1.94-0.98 4.09-1.77 4.79-1.77h1.26l-0.23 2.27c-0.81 7.86-13.87 25.8-26.62 36.58-9.33 7.9-24.7 17.1-31.32 18.76-3.59 0.9-9.67-1.04-20.94-6.69-4.18-2.1-8.58-4.15-9.77-4.57-19.13-6.67-46.28-30.67-59.41-52.51-9.28-15.44-17.87-39.08-15.98-44.01 0.54-1.4 1.89-0.27 5.62 4.69z"/>
	</g>
</svg>