<svg version="1.2" xmlns="http://www.w3.org/2000/svg" viewBox="0 0 400 159" width="400" height="159">
	<style>
		.s0 { fill: #d4d4d6 } 
	</style>
	<g id="svgg">
		<path id="path0" fill-rule="evenodd" class="s0" d="m106.82 2c1.71 0 2.18 1.3 1.62 4.5-0.04 0.23-0.13 0.93-0.19 1.55-0.06 0.62-0.18 1.37-0.27 1.67-0.76 2.58-0.3 11.48 0.68 13.3 0.08 0.15 0.2 0.56 0.27 0.92 0.09 0.54 0.48 1.42 1.42 3.23 0.08 0.13 0.37 0.7 0.65 1.25 0.29 0.55 0.91 1.52 1.39 2.15 0.47 0.63 0.95 1.31 1.07 1.52 0.3 0.53 3.04 3.23 3.56 3.5 0.24 0.13 0.48 0.35 0.54 0.49 0.05 0.14 0.21 0.25 0.34 0.25 0.14 0 0.31 0.11 0.38 0.24 0.12 0.2 1.51 1.33 3.47 2.8 4.49 3.38 2.87 5.78-3.13 4.62-3.26-0.63-9.13-1.13-9.54-0.82-0.09 0.07-0.65 0.17-1.25 0.22-2.09 0.16-4.07 0.6-5.44 1.21-0.29 0.13-0.66 0.23-0.83 0.24-0.17 0-0.65 0.18-1.06 0.39-1.59 0.84-3.17 1.6-3.33 1.6-0.09 0-0.17 0.12-0.17 0.25 0 0.14-0.11 0.25-0.24 0.25-0.28 0-1.6 0.86-1.92 1.25-0.12 0.14-0.27 0.25-0.34 0.25-0.24 0-1.29 0.97-3.07 2.82-0.45 0.47-0.89 0.85-0.96 0.85-0.08 0-0.14 0.1-0.14 0.23 0 0.13-0.11 0.28-0.25 0.33-0.13 0.05-0.25 0.18-0.25 0.29 0 0.19-1.46 2.14-2.03 2.7-0.16 0.16-0.3 0.36-0.3 0.44 0 0.09-0.21 0.36-0.46 0.62-0.25 0.26-0.67 0.76-0.93 1.11-1.39 1.86-2.77 2.35-3.66 1.29-0.25-0.3-0.45-0.67-0.45-0.85 0-0.17-0.07-0.35-0.17-0.41-0.2-0.13-0.22-0.86-0.02-0.99 0.08-0.04 0.19-0.74 0.26-1.55 0.06-0.8 0.21-2.06 0.34-2.79 0.89-5.08 0.73-7.68-0.68-10.86-0.13-0.29-0.23-0.64-0.23-0.77 0-0.14-0.34-0.86-0.75-1.6-0.41-0.75-0.75-1.43-0.75-1.51 0-0.08-0.11-0.19-0.25-0.24-0.14-0.05-0.25-0.21-0.25-0.34 0-0.13-0.06-0.26-0.12-0.29-0.07-0.04-0.35-0.39-0.63-0.8-0.4-0.58-1.72-2.09-2.54-2.89-0.07-0.07-0.78-0.62-1.58-1.22-0.81-0.61-1.46-1.17-1.46-1.25 0-0.08-0.12-0.15-0.26-0.15-0.23 0-1.57-0.59-2.24-1-0.56-0.33-2.52-1.17-2.74-1.17-0.14 0-0.28-0.06-0.33-0.14-0.05-0.09-0.36-0.2-0.68-0.26-0.32-0.06-0.59-0.18-0.59-0.27 0-0.08-0.1-0.11-0.23-0.06-0.13 0.05-0.28 0.01-0.34-0.09-0.06-0.1-0.24-0.18-0.39-0.18-0.16-0.01-0.59-0.15-0.95-0.33-0.37-0.18-0.74-0.33-0.83-0.33-0.18 0-2.36-0.8-2.77-1.01-0.15-0.07-0.75-0.23-1.34-0.34-0.58-0.11-1.14-0.26-1.23-0.33-0.09-0.07-0.62-0.18-1.17-0.25-0.55-0.06-1.07-0.17-1.16-0.24-0.09-0.07-0.77-0.17-1.5-0.23-0.74-0.05-2.01-0.16-2.84-0.22-1.85-0.16-4.86-0.16-6.08-0.01-0.5 0.06-1.55 0.16-2.33 0.22-0.77 0.06-1.52 0.18-1.66 0.25-0.14 0.08-0.67 0.21-1.18 0.3-1.2 0.21-2.78 0.65-3.44 0.95-0.29 0.13-0.58 0.24-0.65 0.24-0.07 0-0.9 0.38-1.84 0.85-2.33 1.15-2.79 0.81-1.74-1.26 0.19-0.36 0.34-0.79 0.34-0.94 0-0.15 0.11-0.37 0.25-0.48 0.14-0.12 0.25-0.34 0.25-0.5 0-0.16 0.11-0.38 0.23-0.49 0.13-0.11 0.29-0.38 0.34-0.62 0.09-0.35 0.66-1.34 1.14-1.98 0.07-0.09 0.4-0.58 0.73-1.08 1.65-2.48 4.45-5.47 6.87-7.33 0.29-0.23 0.81-0.67 1.16-0.97 0.34-0.31 0.99-0.78 1.45-1.05 0.46-0.27 1.24-0.78 1.75-1.14 0.5-0.37 1.7-1.07 2.66-1.57 0.97-0.5 1.98-1.03 2.25-1.17 0.28-0.15 0.63-0.27 0.79-0.27 0.15 0 0.32-0.08 0.38-0.17 0.13-0.2 1.7-0.22 1.82-0.02 0.05 0.08 0.67 0.19 1.38 0.24 0.72 0.06 2.01 0.26 2.88 0.45 0.87 0.19 1.81 0.39 2.09 0.44 0.27 0.06 0.58 0.17 0.67 0.24 0.1 0.08 0.51 0.19 0.92 0.25 0.68 0.09 2.44 0.59 3.24 0.9 0.33 0.13 1.75 0.55 1.92 0.58 0.05 0 0.39 0.13 0.75 0.28 0.8 0.32 3.08 1.11 3.96 1.37 0.34 0.09 0.62 0.23 0.62 0.29 0 0.07 0.24 0.17 0.54 0.24 0.3 0.06 0.88 0.29 1.29 0.5 0.42 0.21 1.17 0.55 1.67 0.75 0.5 0.21 1.25 0.53 1.67 0.72 3.47 1.59 10.25 2.14 12.6 1.02 0.29-0.13 0.62-0.25 0.72-0.25 0.34 0 2.93-0.89 2.98-1.03 0.03-0.07 0.21-0.13 0.4-0.13 0.19 0 0.59-0.19 0.9-0.42 0.3-0.23 0.62-0.42 0.71-0.42 0.09 0 0.18-0.07 0.21-0.15 0.04-0.09 0.75-0.87 1.6-1.74 0.85-0.87 1.54-1.62 1.54-1.67 0-0.05 0.23-0.33 0.52-0.64 0.28-0.3 0.86-1.03 1.29-1.63 0.42-0.6 0.94-1.27 1.15-1.5 0.21-0.23 0.38-0.46 0.38-0.52 0-0.06 0.28-0.41 0.62-0.77 0.35-0.37 0.84-0.9 1.1-1.19 0.42-0.47 0.57-0.52 1.43-0.52zm-58.17 3.92c0.31 0.31 0.41 1.08 0.14 1.08-0.3 0-1.22 0.44-1.87 0.9-0.28 0.19-0.84 0.53-1.25 0.75-0.42 0.22-0.87 0.5-1.02 0.62-0.14 0.13-0.31 0.23-0.38 0.23-0.06 0-0.21 0.08-0.32 0.17-0.11 0.09-0.99 0.74-1.95 1.43-0.96 0.7-1.83 1.37-1.93 1.5-0.11 0.13-0.23 0.23-0.29 0.23-0.05 0-0.45 0.34-0.89 0.75-0.44 0.42-0.89 0.75-1.01 0.75-0.12 0-0.21 0.06-0.22 0.13 0 0.24-2.13 2.54-2.35 2.54-0.08 0-0.14 0.11-0.14 0.24 0 0.13-0.1 0.3-0.22 0.38-0.12 0.07-0.62 0.69-1.11 1.38-0.49 0.69-0.98 1.32-1.09 1.42-0.1 0.09-0.33 0.48-0.51 0.87-0.18 0.39-0.37 0.71-0.43 0.71-0.06 0-0.2 0.24-0.32 0.54-0.12 0.3-0.43 0.86-0.69 1.24-0.25 0.38-0.47 0.74-0.47 0.8 0 0.06-0.18 0.52-0.41 1.02-0.23 0.5-0.42 1.04-0.42 1.2 0 0.17-0.07 0.37-0.15 0.46-0.08 0.08-0.31 0.76-0.51 1.49-0.19 0.73-0.42 1.5-0.51 1.7-0.08 0.21-0.2 0.85-0.25 1.42-0.05 0.58-0.14 1.31-0.19 1.63-0.52 3.22 0.2 8.19 1.61 11.03 0.28 0.55 0.5 1.1 0.5 1.22 0 0.12 0.11 0.26 0.25 0.31 0.14 0.05 0.25 0.18 0.25 0.29 0 0.1 0.23 0.47 0.5 0.82 0.28 0.34 0.5 0.71 0.5 0.82 0 0.1 0.11 0.23 0.25 0.28 0.14 0.06 0.25 0.18 0.25 0.28 0 0.21 3.24 3.45 3.45 3.45 0.08 0 0.26 0.13 0.4 0.29 0.42 0.47 1.14 1.04 1.31 1.04 0.44 0 0.65 1.08 0.24 1.24-0.25 0.09-1.88-0.37-2.07-0.59-0.04-0.05-0.42-0.18-0.83-0.28-0.41-0.1-1.19-0.41-1.74-0.69-0.54-0.28-1.08-0.51-1.19-0.51-0.25 0-2.82-1.3-3.49-1.76-0.27-0.19-0.85-0.51-1.29-0.71-0.43-0.2-0.79-0.44-0.79-0.53 0-0.09-0.09-0.17-0.19-0.17-0.29 0-3.58-2.3-4.63-3.25-1.3-1.16-4.01-3.9-4.01-4.05 0-0.09-0.12-0.2-0.25-0.26-0.14-0.05-0.25-0.2-0.25-0.33 0-0.13-0.12-0.28-0.25-0.33-0.14-0.06-0.25-0.21-0.25-0.34 0-0.13-0.12-0.28-0.25-0.33-0.14-0.05-0.25-0.2-0.25-0.33 0-0.13-0.12-0.28-0.25-0.34-0.14-0.05-0.25-0.21-0.25-0.35 0-0.14-0.07-0.25-0.14-0.25-0.15 0-1.36-1.95-1.36-2.18 0-0.06-0.12-0.21-0.25-0.32-0.14-0.12-0.25-0.35-0.25-0.52 0-0.18-0.08-0.32-0.17-0.32-0.09 0-0.17-0.11-0.17-0.25 0-0.13-0.18-0.64-0.41-1.11-0.23-0.48-0.42-0.99-0.42-1.15 0-0.16-0.06-0.32-0.14-0.35-0.28-0.11-1.34-4.6-1.33-5.61 0.01-0.36-0.03-0.73-0.09-0.82-0.45-0.74 0.13-4.21 0.7-4.21 0.08 0 0.24-0.2 0.37-0.46 0.74-1.47 5.8-7.04 6.4-7.04 0.1 0 0.27-0.15 0.39-0.33 0.11-0.18 0.32-0.33 0.45-0.33 0.14 0 0.25-0.12 0.25-0.25 0-0.14 0.11-0.25 0.24-0.25 0.14 0 0.3-0.1 0.38-0.21 0.16-0.25 1.48-1.13 1.7-1.13 0.08 0 0.18-0.06 0.21-0.14 0.06-0.15 2.23-1.52 2.41-1.52 0.19 0 2.14-0.89 2.39-1.1 0.14-0.11 0.55-0.28 0.92-0.39 0.37-0.11 0.82-0.27 1-0.36 0.63-0.29 3-0.99 3.36-0.99 0.21 0 0.42-0.07 0.47-0.16 0.06-0.09 0.29-0.17 0.52-0.17 0.22 0 0.54-0.07 0.69-0.16 0.47-0.25 2.36-0.65 3.71-0.77 0.69-0.06 1.33-0.17 1.42-0.24 0.19-0.14 3.35-0.35 5.27-0.35 0.7 0 1.49-0.07 1.75-0.15 0.61-0.19 3-0.13 3.21 0.09zm142.45 6.93c0.41 1.57 1.6 4.31 1.87 4.32 0.06 0 0.45 0.54 0.86 1.19 0.42 0.65 0.94 1.36 1.17 1.59 1.4 1.35 3.07 2.72 3.77 3.09 0.45 0.23 1.19 0.62 1.65 0.87 0.46 0.25 1.86 0.79 3.12 1.2 3.97 1.31 4.17 3.38 0.43 4.39-2.11 0.56-4.28 1.45-4.91 2-0.31 0.27-0.88 0.66-1.25 0.85-1.07 0.54-3.29 2.88-4.55 4.79-1.18 1.8-1.46 2.42-2.19 4.91-1.09 3.71-3.24 4.11-4.14 0.78-0.17-0.59-0.35-1.16-0.42-1.25-0.07-0.09-0.27-0.58-0.44-1.08-0.17-0.5-0.39-1.03-0.49-1.17-0.1-0.13-0.48-0.84-0.84-1.56-0.36-0.72-1-1.65-1.42-2.08-0.42-0.42-1.01-1.13-1.31-1.57-0.29-0.45-0.71-0.87-0.91-0.95-0.42-0.16-2.55-1.61-2.68-1.84-0.22-0.35-3.4-1.58-4.95-1.92-2.53-0.54-3.31-2.78-1.27-3.58 0.3-0.12 0.78-0.31 1.05-0.42 0.28-0.12 1.14-0.42 1.92-0.67 0.78-0.25 1.45-0.51 1.5-0.58 0.04-0.06 0.46-0.28 0.91-0.48 1.35-0.59 1.5-0.68 2.19-1.3 0.35-0.32 0.91-0.75 1.23-0.96 0.32-0.2 0.87-0.7 1.22-1.1 1.63-1.89 2.27-2.72 2.53-3.29 0.53-1.18 0.84-1.78 1-1.96 0.09-0.1 0.31-0.72 0.49-1.37 0.18-0.66 0.39-1.2 0.46-1.2 0.07 0 0.13-0.14 0.13-0.3 0-0.65 0.56-1.88 1.03-2.28q2.01-1.69 3.24 2.93zm-80.05-0.18h5.95v8.91c0 6.3-0.05 8.92-0.18 8.92-0.89 0-4.82-7.02-4.82-8.62 0-0.13-0.14-0.55-0.31-0.93-0.18-0.38-0.4-1.49-0.51-2.45-0.1-0.96-0.22-2.01-0.26-2.33-0.04-0.32-0.03-1.24 0.03-2.04zm257.95 12.45c0.13 0.05 0.37 0.12 0.53 0.17 0.44 0.13 2.13 5.23 2.13 6.45 0 0.14 0.08 0.26 0.17 0.26 0.09 0 0.17 0.1 0.17 0.23 0 0.83 1.95 6.05 2.46 6.58 0.12 0.13 0.52 0.78 0.89 1.46 0.38 0.69 0.88 1.45 1.13 1.7 0.24 0.25 0.88 0.99 1.41 1.66 0.52 0.66 1.04 1.21 1.14 1.21 0.1 0 0.63 0.45 1.17 1 0.55 0.55 1.07 1 1.16 1 0.16 0 1.26 0.8 1.76 1.27 0.28 0.27 2.6 1.43 3.79 1.9 0.55 0.21 1.04 0.44 1.09 0.51 0.1 0.15 2.98 0.96 5.83 1.65 1.24 0.31 2.29 0.6 2.33 0.67 0.05 0.06 0.37 0.21 0.72 0.32 1.06 0.35 2.1 1.84 1.28 1.84-0.09 0-0.16 0.12-0.16 0.26 0 0.4-1.12 0.81-4.25 1.59-1.56 0.39-2.87 0.76-2.92 0.81-0.05 0.06-0.78 0.32-1.63 0.57-1.75 0.52-4.37 1.58-4.37 1.76 0 0.07-0.47 0.37-1.04 0.67-0.57 0.3-1.28 0.72-1.57 0.94-0.3 0.22-0.58 0.4-0.64 0.4-0.05 0-0.41 0.31-0.8 0.69-0.38 0.37-1.09 0.98-1.58 1.34-0.48 0.36-0.87 0.74-0.87 0.85 0 0.12-0.45 0.68-1 1.25-0.55 0.58-1 1.09-1 1.15 0 0.06-0.18 0.34-0.39 0.62-0.22 0.29-0.64 0.97-0.94 1.52-0.31 0.55-0.61 1.04-0.69 1.09-0.26 0.17-0.99 1.97-1.66 4.08-0.37 1.19-0.75 2.29-0.83 2.44-0.08 0.16-0.44 1.48-0.81 2.95-1.12 4.53-2.59 5.64-3.54 2.69-0.1-0.32-0.25-0.66-0.32-0.76-0.08-0.1-0.45-1.45-0.82-3-0.77-3.2-1.47-5.57-1.64-5.57-0.06-0.01-0.24-0.36-0.41-0.8-0.41-1.09-1.82-3.87-1.96-3.87-0.11 0-0.99-1.22-1.16-1.61-0.15-0.35-3.38-3.72-3.56-3.73-0.1 0-0.62-0.4-1.14-0.89-0.52-0.5-1.21-1.04-1.52-1.21-3.94-2.18-5.73-2.97-7.49-3.29-0.34-0.07-0.62-0.18-0.62-0.26 0-0.08-0.28-0.19-0.62-0.26-1.87-0.35-6.12-1.59-6.4-1.86-0.84-0.84-0.39-2.06 0.9-2.4 0.39-0.11 0.74-0.25 0.79-0.32 0.04-0.07 1.24-0.4 2.66-0.75 3.29-0.79 5.39-1.4 5.5-1.59 0.05-0.08 0.47-0.27 0.92-0.42 1.26-0.43 3.58-1.61 3.98-2.03 0.19-0.21 0.43-0.38 0.53-0.38 0.1 0 0.68-0.41 1.29-0.92 0.61-0.5 1.14-0.91 1.17-0.91 0.36 0 4.24-4.49 4.5-5.21 0.05-0.16 0.17-0.29 0.26-0.29 0.18 0 2.19-4.06 2.19-4.43 0-0.13 0.06-0.24 0.14-0.24 0.22 0 1-2.63 1.95-6.5 0.25-1.05 0.52-1.95 0.58-2 0.07-0.05 0.21-0.39 0.31-0.77q0.27-1 1.02-1.28c0.13-0.05 0.36-0.05 0.5 0zm-359.11 4.12c0.06 1.01 0.19 1.88 0.29 1.94 0.09 0.06 0.16 0.21 0.14 0.34-0.05 0.26 0.06 0.7 0.54 2.32 0.7 2.3 2.56 5.93 3.91 7.61 0.31 0.38 0.56 0.74 0.56 0.8 0 0.13 0.24 0.42 1.08 1.31 0.37 0.39 0.94 1.01 1.27 1.37 0.84 0.91 3.08 2.93 3.66 3.3 0.27 0.17 0.49 0.37 0.49 0.46 0 0.08 0.08 0.15 0.18 0.15 0.11 0 0.4 0.17 0.65 0.37 0.25 0.21 0.63 0.49 0.85 0.63 0.21 0.13 0.56 0.42 0.78 0.62 0.21 0.21 0.49 0.38 0.61 0.38 0.12 0 0.4 0.13 0.62 0.29 0.21 0.16 0.75 0.48 1.18 0.7 0.44 0.23 0.8 0.46 0.8 0.51 0 0.05 0.33 0.24 0.74 0.42 0.42 0.18 0.75 0.38 0.75 0.45 0.01 0.07 0.1 0.13 0.21 0.13 0.1 0 0.72 0.25 1.37 0.56 2.67 1.28 3.4 1.6 3.65 1.6 0.14 0 0.3 0.07 0.35 0.16 0.05 0.08 0.34 0.2 0.64 0.26 0.69 0.14 4.11 1.23 4.49 1.43 0.16 0.08 0.44 0.15 0.62 0.15 0.18 0 0.36 0.07 0.41 0.15 0.05 0.08 0.53 0.2 1.06 0.27 0.52 0.06 1.03 0.17 1.12 0.23 0.09 0.05 0.96 0.23 1.92 0.38 1.92 0.31 3.03 0.56 3.46 0.8 0.61 0.34 2.22 1 2.66 1.1 0.25 0.05 0.61 0.16 0.8 0.23 0.76 0.32 5.31 1.78 7.75 2.49 0.68 0.2 1.46 0.48 1.72 0.61 0.26 0.13 0.55 0.24 0.64 0.24 0.1 0 0.64 0.2 1.2 0.44 0.56 0.24 1.32 0.54 1.69 0.68 0.36 0.14 1.08 0.44 1.58 0.67 0.5 0.24 1.18 0.55 1.5 0.69 0.32 0.15 0.62 0.32 0.67 0.38 0.04 0.06 0.57 0.34 1.16 0.63 1.3 0.63 1.32 0.65 3.31 1.97 0.86 0.57 1.59 1.04 1.63 1.04 0.03 0 0.2 0.13 0.37 0.3 0.17 0.15 0.63 0.55 1.02 0.87 1.75 1.43 3.8 3.42 4.51 4.37 0.13 0.18 0.37 0.47 0.52 0.63 0.29 0.31 1.43 1.87 1.77 2.42 0.37 0.59 1.22 1.99 1.36 2.25 0.17 0.28 0.84 1.74 1.04 2.25 0.07 0.18 0.32 0.76 0.54 1.29 0.23 0.54 0.47 1.23 0.53 1.55 0.06 0.32 0.17 0.62 0.24 0.66 0.16 0.1 0.56 1.84 0.53 2.32-0.01 0.18 0.05 0.41 0.14 0.51 0.08 0.11 0.2 0.78 0.26 1.51 0.05 0.73 0.18 1.47 0.27 1.65 0.13 0.24 0.12 0.34-0.03 0.39q-0.24 0.07-0.01 0.2c0.33 0.2 0.32 8.38-0.02 9-0.07 0.14-0.2 0.77-0.29 1.42-0.08 0.64-0.39 2.01-0.69 3.05-1.07 3.7-1.97 2.96-2.2-1.8 0-0.14-0.09-0.35-0.18-0.47-0.1-0.12-0.2-0.46-0.23-0.75-0.03-0.29-0.2-0.88-0.39-1.31-0.18-0.43-0.33-0.88-0.33-1 0-0.89-4.17-7.81-4.7-7.81-0.07 0-0.13-0.15-0.13-0.33 0-0.18-0.07-0.33-0.15-0.33-0.08 0-0.86-0.72-1.72-1.59-0.87-0.87-1.67-1.58-1.77-1.58-0.11 0-0.2-0.09-0.2-0.21 0-0.11-0.65-0.69-1.43-1.29-0.79-0.6-1.53-1.18-1.65-1.29-0.13-0.12-0.27-0.21-0.33-0.21-0.06 0-0.35-0.19-0.66-0.42-0.3-0.23-0.63-0.41-0.73-0.41-0.11 0-0.2-0.07-0.2-0.14 0-0.08-0.2-0.25-0.46-0.37-0.25-0.13-0.75-0.43-1.12-0.67-0.37-0.25-0.83-0.49-1.02-0.55-0.19-0.07-0.49-0.26-0.65-0.44-0.16-0.19-0.38-0.34-0.48-0.34-0.1 0-0.48-0.15-0.85-0.33-0.37-0.17-0.76-0.32-0.88-0.33-0.11 0-0.2-0.07-0.2-0.15 0-0.08-0.2-0.2-0.44-0.26-0.24-0.06-1.05-0.4-1.79-0.75-0.75-0.35-1.6-0.69-1.9-0.75-0.3-0.07-0.54-0.17-0.54-0.23 0-0.07-0.32-0.2-0.71-0.31-1.8-0.47-2.73-0.74-3.04-0.88-0.18-0.08-0.6-0.2-0.92-0.26-0.32-0.06-0.73-0.2-0.91-0.32-0.19-0.12-1.01-0.31-1.84-0.43-0.82-0.11-1.57-0.27-1.66-0.33-0.1-0.07-0.58-0.17-1.08-0.24-0.5-0.06-0.99-0.17-1.09-0.25-0.09-0.07-0.69-0.34-1.33-0.59-0.65-0.25-1.47-0.59-1.84-0.76-0.36-0.16-0.94-0.35-1.29-0.41-0.34-0.06-0.62-0.17-0.62-0.24 0-0.07-0.31-0.18-0.68-0.24-0.37-0.06-0.8-0.17-0.96-0.25-0.3-0.16-4.81-1.6-5.57-1.78-0.25-0.06-0.46-0.18-0.46-0.27q-0.01-0.13-0.13-0.07c-0.14 0.09-1.41-0.25-2.62-0.7-0.79-0.29-1.19-0.46-2.85-1.22-0.38-0.17-0.77-0.31-0.88-0.31-0.1 0-0.19-0.08-0.19-0.17 0-0.09-0.13-0.16-0.29-0.16-0.31 0-2.39-0.94-2.54-1.15-0.12-0.17-1.91-1.02-2.14-1.02-0.11 0-0.19-0.11-0.19-0.25 0-0.14-0.12-0.25-0.26-0.25-0.26 0-1.44-0.8-1.55-1.04-0.03-0.07-0.16-0.13-0.29-0.13-0.13 0-0.24-0.06-0.24-0.13 0-0.07-0.24-0.26-0.54-0.42-0.3-0.16-0.81-0.53-1.14-0.83-0.32-0.29-0.96-0.83-1.41-1.2-1.1-0.88-2.91-2.69-2.91-2.91 0-0.1-0.11-0.17-0.25-0.17-0.13 0-0.25-0.08-0.25-0.17 0-0.09-0.11-0.3-0.26-0.46-0.79-0.89-1.23-1.48-1.23-1.66-0.01-0.12-0.11-0.21-0.24-0.21-0.12 0-0.27-0.14-0.33-0.29-0.05-0.17-0.25-0.52-0.43-0.8-0.19-0.27-0.39-0.61-0.45-0.75-0.06-0.13-0.2-0.36-0.31-0.5-0.37-0.46-1.25-2.14-1.25-2.41 0-0.14-0.06-0.25-0.13-0.25-0.08 0-0.34-0.55-0.6-1.21-0.25-0.67-0.6-1.56-0.77-1.98-0.18-0.42-0.37-1.09-0.43-1.5-0.07-0.4-0.19-0.78-0.28-0.84-0.1-0.06-0.2-0.32-0.23-0.58-0.11-1.01-0.19-1.5-0.38-2.3-0.21-0.91-0.38-2.64-0.36-3.66 0.01-0.36-0.07-0.75-0.17-0.88q-0.21-0.23 0.02-0.22 0.22 0.01 0.03-0.21c-0.1-0.13-0.12-0.31-0.04-0.44 0.08-0.13 0.07-0.46-0.01-0.75-0.18-0.59-0.13-3.1 0.06-3.1 0.19 0 0.15-0.8-0.04-0.92-0.1-0.06-0.12-0.19-0.06-0.29 0.07-0.11 0.13-0.34 0.15-0.53 0.07-1.02 0.3-2.44 0.5-3.18 0.12-0.45 0.25-1.02 0.28-1.25 0.04-0.23 0.15-0.58 0.26-0.78 0.11-0.2 0.2-0.48 0.2-0.63 0-0.15 0.16-0.6 0.34-1.01 0.68-1.5 1.25-0.82 1.39 1.66zm104.64 17.69c1.17 0.13 2.2 0.24 2.29 0.24q0.18-0.01 0.18 4.84v4.84l0.84-0.71c0.46-0.4 1.11-0.96 1.44-1.25 0.34-0.29 1.09-0.82 1.69-1.16 0.59-0.35 1.16-0.72 1.27-0.83 0.34-0.34 2.44-1.33 3.84-1.81 0.73-0.26 1.41-0.53 1.5-0.6 0.23-0.17 2.55-0.74 4.08-1 2.72-0.46 8.06-0.21 10.75 0.51 2.1 0.56 6.25 2.24 6.95 2.82 0.12 0.09 0.86 0.6 1.64 1.12 0.78 0.52 1.86 1.37 2.41 1.9 0.55 0.54 1.16 1.11 1.36 1.27 0.98 0.85 3 3.63 4.04 5.56 1.42 2.65 2.07 4.4 2.6 7 0.16 0.78 0.35 1.57 0.43 1.75 0.42 0.92 0.49 5.15 0.49 27.88v23.87h-19v-22.87c0-23.12-0.03-24.31-0.61-25.63-1.63-3.7-3.13-5.51-5.56-6.75-0.68-0.34-1.28-0.68-1.33-0.74-0.21-0.29-2.82-0.88-4.22-0.96-6.37-0.38-12.23 3.26-13.97 8.67-0.6 1.89-0.63 3.11-0.64 25.82v22.46h-18.84v-36.32c0-33.31 0.03-36.35 0.27-36.59 0.37-0.37 3.36-1.85 4.02-2 0.3-0.06 0.55-0.18 0.55-0.25 0-0.33 4.67-1.27 6.83-1.38 1.18-0.06 2.1 0 4.7 0.3zm149.72 3.88c2 0.75 3.77 1.6 4.33 2.09 0.27 0.24 0.56 0.44 0.63 0.44 0.9 0 6.95 5.79 6.95 6.65 0 0.1 0.07 0.18 0.15 0.18 0.21 0 1.07 1.38 1.79 2.85 0.33 0.68 0.65 1.27 0.72 1.32 0.44 0.29 1.85 5.11 2.11 7.16 0.06 0.51 0.19 1.03 0.3 1.15 0.13 0.17 0.2 7.18 0.23 25.38l0.05 25.14h-19.01l-0.01-22.71c0-21.52-0.06-24.65-0.47-25.19-0.07-0.1-0.23-0.52-0.35-0.93-0.69-2.44-2.79-5.11-4.98-6.35-0.7-0.4-1.32-0.78-1.37-0.85-0.05-0.07-0.54-0.28-1.08-0.45-3.64-1.17-7.97-0.89-10.91 0.7-2.43 1.31-2.72 1.56-4.91 4.14-0.58 0.7-1.38 2.42-1.79 3.89l-0.38 1.33-0.05 23.21-0.05 23.21h-18.82v-72.5h18.83v6.18l1.16-0.99c1.2-1.04 2.66-2.06 3.72-2.61 0.34-0.18 0.62-0.37 0.62-0.44 0-0.18 2.43-1.3 3.94-1.81 0.74-0.25 1.5-0.54 1.68-0.64 0.5-0.27 3.59-0.86 5.28-1.01 4.25-0.38 8.03 0.1 11.69 1.46zm-84.75-0.14h18.66v72.5h-18.66zm120.05 0h10.39l1.06 3.04c0.58 1.67 1.15 3.19 1.26 3.38 0.11 0.18 0.67 1.68 1.25 3.33 0.58 1.65 1.1 3.04 1.16 3.08 0.05 0.05 0.58 1.44 1.16 3.09 0.58 1.65 1.11 3.08 1.19 3.18 0.13 0.17 1.05 2.66 1.83 4.98 0.19 0.55 0.41 1.09 0.5 1.19 0.14 0.17 1.58 4.14 2.06 5.7 0.12 0.39 0.3 0.81 0.4 0.92 0.18 0.22 2.19 5.8 2.19 6.08 0 0.09 0.06 0.19 0.15 0.22 0.08 0.03 0.61 1.37 1.18 2.97 0.56 1.61 1.08 2.99 1.15 3.09 0.07 0.09 0.5 1.2 0.95 2.47l0.81 2.3 0.25-0.55c0.14-0.3 0.3-0.59 0.35-0.64 0.06-0.04 0.14-0.23 0.2-0.41 0.25-0.88 2-5.73 2.29-6.32 0.17-0.38 0.75-1.92 1.27-3.43 0.52-1.52 1-2.79 1.06-2.84 0.1-0.06 1.82-4.85 2.12-5.87 0.05-0.16 0.15-0.29 0.24-0.29 0.08 0 0.14-0.1 0.14-0.21 0.01-0.27 2.15-6.31 2.32-6.54 0.07-0.09 0.61-1.52 1.18-3.17 0.58-1.65 1.12-3.08 1.19-3.18 0.08-0.1 0.53-1.3 1-2.67 0.47-1.36 0.9-2.54 0.96-2.61 0.27-0.29 4.66 0.96 6.6 1.88 0.74 0.34 1.6 0.75 1.92 0.9 0.32 0.15 1.25 0.78 2.07 1.39 0.81 0.62 1.6 1.19 1.75 1.28 0.3 0.17 2.54 2.67 3.23 3.61l0.47 0.64-0.61 1.67c-0.34 0.92-0.68 1.67-0.76 1.67-0.08 0-0.15 0.09-0.15 0.19 0 0.27-2 5.52-2.18 5.75-0.09 0.1-0.39 0.81-0.67 1.58-0.28 0.77-0.73 2-1 2.73-0.27 0.72-0.55 1.36-0.62 1.41-0.06 0.05-0.37 0.77-0.67 1.59-0.85 2.31-1.71 4.49-1.85 4.67-0.07 0.09-0.56 1.33-1.09 2.75-0.52 1.42-1.05 2.77-1.18 3-0.24 0.44-0.85 1.97-1.75 4.42-0.31 0.82-0.61 1.53-0.66 1.58-0.06 0.05-0.54 1.25-1.07 2.67-0.53 1.42-1.1 2.84-1.27 3.16-0.17 0.32-0.73 1.71-1.25 3.09-0.52 1.37-1.12 2.87-1.33 3.33-0.21 0.46-0.77 1.88-1.25 3.17-0.48 1.28-0.92 2.37-0.99 2.41-0.06 0.05-0.54 1.25-1.08 2.67-0.53 1.42-1.17 3.03-1.42 3.58-0.25 0.55-0.85 2.07-1.34 3.38-0.48 1.3-0.94 2.37-1.02 2.37-0.08 0-0.14 0.1-0.14 0.21 0 0.12-0.23 0.79-0.5 1.5-0.28 0.71-0.74 1.91-1.03 2.67-0.29 0.75-0.59 1.46-0.67 1.56-0.14 0.18-0.43 0.95-1.66 4.3-0.26 0.73-0.54 1.37-0.61 1.42-0.07 0.05-0.53 1.18-1.02 2.51-0.49 1.33-1.08 2.82-1.31 3.32-0.23 0.5-0.78 1.85-1.21 3l-0.79 2.1-9.77 0.04c-6.68 0.03-9.77-0.01-9.77-0.13 0-0.1 0.22-0.75 0.49-1.46 0.26-0.71 0.68-1.85 0.94-2.54 0.25-0.68 0.71-1.78 1.01-2.44 0.31-0.66 0.56-1.25 0.56-1.31 0-0.23 1.36-3.83 1.57-4.16 0.12-0.19 0.29-0.56 0.39-0.84 1.3-3.58 1.91-5.17 2.05-5.34 0.15-0.18 0.72-1.64 1.51-3.91 0.18-0.5 0.51-1.29 0.73-1.75 0.22-0.45 0.78-1.88 1.25-3.16 0.46-1.29 1.07-2.8 1.34-3.36 0.27-0.57 0.5-1.1 0.5-1.18 0-0.09 0.19-0.63 0.43-1.21l0.42-1.06-0.61-1.59c-0.33-0.88-0.67-1.68-0.75-1.78-0.08-0.09-0.59-1.35-1.15-2.79-0.55-1.44-1.19-3.01-1.41-3.49-0.23-0.48-0.8-1.88-1.26-3.1-0.47-1.23-0.96-2.39-1.08-2.59-0.13-0.19-0.62-1.4-1.1-2.69-0.47-1.28-0.96-2.48-1.07-2.66-0.22-0.35-1-2.28-1.93-4.75-0.29-0.78-0.6-1.51-0.69-1.62-0.16-0.19-0.63-1.37-1.65-4.12-0.27-0.72-0.55-1.39-0.63-1.5-0.08-0.1-0.43-0.89-0.77-1.76-1.14-2.93-1.47-3.75-1.61-3.93-0.14-0.19-1.51-3.67-1.93-4.91-0.13-0.41-0.34-0.86-0.46-1-0.11-0.13-0.68-1.48-1.25-3-0.58-1.51-1.11-2.83-1.19-2.93-0.08-0.1-0.6-1.37-1.16-2.83-0.56-1.46-1.08-2.73-1.16-2.82-0.07-0.09-0.62-1.41-1.22-2.92-2.5-6.34-3.29-8.28-3.59-8.83-0.3-0.56-1.52-3.68-1.52-3.9 0-0.05 4.68-0.1 10.39-0.1zm-240.99 31.97c0.1 0.08 0.44 0.2 0.75 0.26 0.94 0.18 6.37 2.55 6.69 2.93 0.04 0.05 0.59 0.35 1.2 0.67 0.62 0.32 1.13 0.64 1.13 0.71 0 0.07 0.09 0.13 0.2 0.13 0.25 0 1.97 1.18 1.97 1.36 0 0.07 0.08 0.14 0.17 0.14 0.21 0 1.48 0.85 2.06 1.38 0.22 0.2 0.84 0.74 1.37 1.2 0.53 0.46 1.2 1.08 1.48 1.39 0.27 0.31 0.97 1.06 1.54 1.67 0.58 0.61 1.09 1.24 1.14 1.4 0.05 0.16 0.15 0.29 0.22 0.29 0.08 0 0.43 0.43 0.78 0.96 0.95 1.39 1.07 1.59 1.18 1.92 0.05 0.16 0.15 0.29 0.22 0.29 0.07 0 0.23 0.24 0.34 0.54 0.12 0.3 0.3 0.65 0.41 0.79 0.17 0.21 0.8 1.62 1.24 2.75 0.48 1.24 1.04 3.21 1.11 3.94 0.05 0.48 0.13 0.95 0.19 1.04 0.13 0.21 0.15 0.34 0.31 2.55l0.12 1.69-0.82 1.21c-0.45 0.66-0.89 1.32-0.98 1.47-0.09 0.15-0.2 0.3-0.25 0.35-0.05 0.05-0.29 0.36-0.54 0.7-1.14 1.53-5.06 5.47-5.45 5.47-0.08 0-0.17 0.06-0.2 0.13-0.06 0.14-1.83 1.48-2.35 1.78-0.16 0.1-1.16 0.68-2.22 1.3-1.06 0.62-2.15 1.18-2.42 1.23-0.27 0.05-0.49 0.16-0.49 0.24 0 0.08-0.09 0.15-0.21 0.15-0.11 0-0.48 0.14-0.8 0.32-0.33 0.17-0.93 0.41-1.33 0.53-0.41 0.11-0.82 0.26-0.91 0.33-0.09 0.06-0.41 0.17-0.71 0.23-0.3 0.07-0.75 0.22-1 0.34-0.25 0.12-0.79 0.27-1.2 0.33-0.42 0.06-0.9 0.17-1.09 0.25-0.71 0.3-3.4 0.89-4.83 1.05-0.83 0.09-1.54 0.23-1.58 0.3-0.22 0.33-8.69 0.63-9.17 0.32-0.38-0.24-0.04-0.65 0.96-1.16 0.47-0.24 0.99-0.55 1.16-0.7 0.16-0.14 0.41-0.31 0.55-0.37 0.13-0.07 0.55-0.3 0.91-0.53 0.37-0.22 0.86-0.5 1.09-0.61 0.42-0.21 0.68-0.41 1.34-1 0.18-0.17 0.37-0.3 0.42-0.3 0.05 0 0.34-0.18 0.64-0.41 0.3-0.23 0.59-0.42 0.64-0.42 0.06 0 0.39-0.27 0.74-0.59 0.35-0.32 0.96-0.87 1.37-1.21 1.35-1.13 3.2-3.07 4.73-4.95 0.52-0.64 1.06-1.3 1.2-1.46 0.14-0.16 0.25-0.35 0.25-0.43 0-0.08 0.15-0.34 0.34-0.57 0.18-0.24 0.55-0.87 0.82-1.42 0.27-0.54 0.6-1.08 0.75-1.2 0.14-0.11 0.26-0.31 0.26-0.43 0-0.12 0.11-0.43 0.24-0.68 0.36-0.71 1.39-3.41 1.52-3.98 0.06-0.27 0.21-0.83 0.35-1.24 0.6-1.86 0.96-6.33 0.68-8.42-0.08-0.55-0.18-1.45-0.22-2-0.11-1.29-0.93-3.85-1.66-5.24-0.32-0.6-0.58-1.18-0.58-1.3 0-0.12-0.08-0.21-0.17-0.21-0.09 0-0.16-0.11-0.16-0.24 0-0.12-0.23-0.47-0.5-0.76-0.28-0.3-0.5-0.6-0.5-0.68 0-0.07-0.66-0.78-1.46-1.57-2.07-2.02-2.4-2.33-2.91-2.66-0.54-0.35-0.74-0.85-0.46-1.19 0.13-0.15 0.28-0.18 0.39-0.1zm-56.11 6.66c0.23 0.51 0.53 0.99 0.84 1.33 0.11 0.13 0.21 0.3 0.21 0.39 0 0.2 0.68 1.19 0.93 1.35 0.11 0.07 0.29 0.37 0.42 0.67 0.12 0.3 0.43 0.72 0.68 0.94 0.26 0.21 0.47 0.46 0.47 0.54 0 0.39 6.93 7.32 7.32 7.32 0.08 0 0.5 0.32 0.95 0.71 1 0.87 1.82 1.45 2.05 1.45 0.1 0 0.18 0.07 0.18 0.15 0 0.09 0.22 0.23 0.5 0.33 0.27 0.09 0.5 0.25 0.5 0.35 0 0.09 0.1 0.17 0.23 0.17 0.12 0 0.32 0.12 0.44 0.27 0.22 0.25 0.93 0.68 1.87 1.1 0.25 0.11 0.46 0.26 0.46 0.32 0 0.06 0.2 0.16 0.45 0.22 0.26 0.06 0.74 0.3 1.08 0.52 0.35 0.22 0.7 0.41 0.8 0.41 0.09 0 0.17 0.06 0.17 0.13 0 0.07 0.33 0.23 0.75 0.35 0.41 0.12 0.75 0.28 0.75 0.36 0 0.08 0.26 0.19 0.58 0.25 0.32 0.06 0.58 0.17 0.58 0.24 0 0.07 0.28 0.18 0.63 0.25 0.34 0.06 1.02 0.29 1.5 0.51 0.49 0.23 0.98 0.41 1.09 0.41 0.12 0 0.29 0.06 0.37 0.15 0.18 0.16 1.95 0.61 3.41 0.87 0.51 0.09 1.16 0.24 1.46 0.33 0.3 0.09 1.2 0.24 2.02 0.32 2.72 0.28 3.27 0.37 3.33 0.51 0.07 0.2 8.28 0.19 8.65 0 0.16-0.09 1.38-0.28 2.71-0.44 1.33-0.16 2.49-0.34 2.58-0.41 0.09-0.08 0.6-0.19 1.13-0.25 0.53-0.07 1-0.18 1.04-0.26 0.05-0.07 0.5-0.23 1-0.34 0.51-0.11 0.92-0.27 0.92-0.34 0-0.08 0.1-0.14 0.22-0.14 0.29 0 2.18-1 2.25-1.19 0.03-0.08 0.13-0.15 0.23-0.15 0.1 0 0.41-0.17 0.7-0.37 2-1.48 2.39-0.27 0.85 2.7-0.11 0.23-0.38 0.8-0.58 1.26-0.2 0.46-0.43 0.96-0.52 1.12q-0.54 1.02-0.65 1.13c-0.17 0.17-0.52 0.76-0.61 1.04-0.05 0.16-0.17 0.29-0.25 0.29-0.08 0-0.14 0.11-0.14 0.24 0 0.13-0.06 0.26-0.13 0.29-0.18 0.08-1.04 1.25-1.04 1.42 0 0.07-0.3 0.42-0.67 0.76-0.36 0.35-0.66 0.67-0.66 0.72 0 0.33-3.81 4.07-4.15 4.07-0.09 0-0.23 0.11-0.3 0.23-0.19 0.33-1.96 1.77-2.18 1.77-0.09 0-0.21 0.11-0.27 0.25-0.05 0.14-0.21 0.25-0.35 0.25-0.14 0-0.25 0.08-0.25 0.17 0 0.1-0.13 0.22-0.29 0.28-0.16 0.06-0.74 0.43-1.3 0.81-0.56 0.38-1.41 0.87-1.88 1.09-0.48 0.22-0.87 0.45-0.87 0.52 0 0.07-0.14 0.13-0.32 0.13-0.17 0-0.34 0.06-0.37 0.13-0.06 0.12-0.48 0.34-2.2 1.13-1.09 0.5-3.07 0.52-3.83 0.03-0.2-0.13-0.72-0.33-1.15-0.45-0.44-0.12-0.79-0.28-0.79-0.36 0-0.08-0.1-0.15-0.22-0.15-0.29 0-1.11-0.38-1.12-0.52 0-0.06-0.37-0.2-0.83-0.31-0.46-0.11-0.83-0.26-0.83-0.33 0-0.07-0.26-0.18-0.58-0.24-0.32-0.06-0.64-0.2-0.71-0.31-0.12-0.19-1.39-0.86-2.38-1.26-0.66-0.26-2.55-1.17-2.92-1.4-0.18-0.11-0.72-0.45-1.19-0.75-0.47-0.3-1.05-0.61-1.29-0.7-0.24-0.1-0.43-0.25-0.43-0.34 0-0.09-0.1-0.17-0.22-0.17-0.23 0-0.76-0.36-1.4-0.96-0.22-0.2-0.43-0.37-0.48-0.37-0.09 0-1.4-0.85-1.68-1.09-0.11-0.09-0.52-0.43-0.91-0.75-2.12-1.71-7.31-6.92-7.31-7.33 0-0.07-0.3-0.45-0.67-0.85-0.37-0.4-0.67-0.83-0.67-0.94 0-0.12-0.07-0.21-0.17-0.21-0.09 0-0.26-0.21-0.37-0.46-0.11-0.25-0.24-0.49-0.29-0.54-0.29-0.26-1.17-1.6-1.17-1.78 0-0.12-0.06-0.22-0.15-0.22-0.08 0-0.23-0.21-0.34-0.46-0.1-0.25-0.41-0.83-0.68-1.29-0.28-0.46-0.59-1.04-0.7-1.29-0.11-0.25-0.26-0.46-0.33-0.46-0.07 0-0.13-0.09-0.13-0.21 0-0.12-0.14-0.47-0.31-0.79-0.17-0.32-0.37-0.83-0.43-1.12-0.07-0.3-0.18-0.55-0.25-0.55-0.08 0-0.19-0.27-0.25-0.6-0.07-0.34-0.22-0.72-0.35-0.84-0.13-0.13-0.33-0.68-0.44-1.23-0.11-0.55-0.26-0.99-0.32-0.99-0.07 0-0.17-0.3-0.23-0.67-0.07-0.37-0.18-0.7-0.25-0.75-0.08-0.05-0.24-0.76-0.36-1.58-0.11-0.83-0.26-1.5-0.33-1.5-0.07 0-0.18-0.6-0.24-1.34-0.06-0.73-0.18-1.33-0.26-1.33-0.08 0-0.15-0.41-0.15-0.92 0-1.05 0.43-1.3 0.79-0.45z"/>
	</g>
</svg>