<svg id="svg" version="1.1" xmlns="http://www.w3.org/2000/svg" xmlns:xlink="http://www.w3.org/1999/xlink" width="400" height="158.33333333333334" viewBox="0, 0, 400,158.33333333333334"><g id="svgg"><path id="path0" d="M105.389 2.522 C 105.129 2.809,104.635 3.343,104.292 3.709 C 103.948 4.074,103.667 4.422,103.667 4.480 C 103.667 4.539,103.497 4.773,103.289 5.002 C 103.081 5.230,102.562 5.904,102.136 6.500 C 101.709 7.096,101.129 7.832,100.847 8.135 C 100.564 8.439,100.333 8.725,100.333 8.770 C 100.333 8.816,99.640 9.567,98.792 10.439 C 97.944 11.311,97.225 12.094,97.194 12.179 C 97.164 12.264,97.065 12.333,96.975 12.333 C 96.885 12.333,96.565 12.521,96.265 12.750 C 95.964 12.979,95.563 13.167,95.373 13.167 C 95.183 13.167,95.003 13.227,94.972 13.301 C 94.915 13.439,92.330 14.333,91.989 14.333 C 91.885 14.333,91.563 14.446,91.272 14.584 C 88.919 15.700,82.143 15.151,78.667 13.563 C 78.254 13.374,77.504 13.051,77.000 12.844 C 76.496 12.637,75.746 12.296,75.333 12.086 C 74.921 11.876,74.340 11.652,74.042 11.589 C 73.744 11.525,73.500 11.420,73.500 11.355 C 73.500 11.289,73.219 11.155,72.875 11.056 C 72.004 10.805,69.715 10.013,68.922 9.688 C 68.558 9.539,68.221 9.412,68.172 9.406 C 67.996 9.385,66.576 8.960,66.250 8.832 C 65.449 8.516,63.689 8.024,63.008 7.926 C 62.600 7.867,62.188 7.758,62.092 7.683 C 61.995 7.608,61.692 7.500,61.417 7.444 C 61.142 7.387,60.204 7.186,59.333 6.998 C 58.462 6.809,57.166 6.609,56.453 6.552 C 55.739 6.496,55.116 6.386,55.068 6.308 C 54.945 6.109,53.375 6.131,53.250 6.333 C 53.193 6.425,53.020 6.500,52.865 6.501 C 52.710 6.502,52.358 6.622,52.083 6.768 C 51.808 6.914,50.796 7.442,49.833 7.941 C 48.871 8.440,47.671 9.145,47.167 9.507 C 46.663 9.869,45.875 10.385,45.417 10.653 C 44.958 10.922,44.305 11.391,43.965 11.696 C 43.624 12.001,43.103 12.438,42.806 12.667 C 40.385 14.535,37.591 17.521,35.944 20.000 C 35.609 20.504,35.278 20.992,35.209 21.083 C 34.728 21.721,34.163 22.707,34.074 23.063 C 34.015 23.296,33.862 23.574,33.734 23.680 C 33.605 23.787,33.500 24.006,33.500 24.167 C 33.500 24.328,33.387 24.553,33.250 24.667 C 33.113 24.781,33.000 24.999,33.000 25.152 C 33.000 25.305,32.848 25.727,32.663 26.090 C 31.606 28.158,32.074 28.500,34.395 27.352 C 35.342 26.883,36.174 26.500,36.242 26.500 C 36.310 26.500,36.603 26.392,36.891 26.259 C 37.549 25.957,39.131 25.522,40.333 25.312 C 40.837 25.223,41.366 25.089,41.507 25.013 C 41.648 24.937,42.398 24.824,43.173 24.763 C 43.949 24.702,44.996 24.601,45.500 24.540 C 46.723 24.391,49.729 24.395,51.583 24.547 C 52.408 24.615,53.683 24.717,54.417 24.774 C 55.150 24.831,55.825 24.934,55.917 25.002 C 56.008 25.070,56.533 25.180,57.083 25.245 C 57.633 25.311,58.158 25.422,58.250 25.492 C 58.342 25.562,58.896 25.710,59.481 25.822 C 60.067 25.934,60.667 26.087,60.815 26.163 C 61.230 26.374,63.405 27.166,63.587 27.172 C 63.677 27.175,64.050 27.323,64.417 27.500 C 64.783 27.677,65.210 27.825,65.365 27.828 C 65.520 27.831,65.697 27.913,65.757 28.011 C 65.818 28.109,65.972 28.149,66.100 28.100 C 66.228 28.051,66.333 28.080,66.333 28.164 C 66.333 28.249,66.597 28.368,66.919 28.428 C 67.240 28.488,67.545 28.604,67.595 28.686 C 67.645 28.767,67.794 28.833,67.926 28.833 C 68.150 28.833,70.110 29.670,70.667 30.003 C 71.338 30.405,72.675 31.000,72.906 31.000 C 73.050 31.000,73.167 31.067,73.167 31.149 C 73.167 31.232,73.823 31.793,74.625 32.397 C 75.427 33.001,76.142 33.553,76.214 33.623 C 77.030 34.420,78.352 35.926,78.750 36.513 C 79.025 36.918,79.306 37.275,79.375 37.306 C 79.444 37.336,79.500 37.470,79.500 37.602 C 79.500 37.735,79.612 37.887,79.750 37.940 C 79.887 37.992,80.000 38.102,80.000 38.182 C 80.000 38.263,80.337 38.939,80.750 39.685 C 81.162 40.430,81.500 41.151,81.500 41.287 C 81.500 41.422,81.604 41.769,81.732 42.058 C 83.137 45.237,83.300 47.845,82.412 52.917 C 82.284 53.650,82.128 54.908,82.066 55.713 C 82.004 56.517,81.889 57.216,81.810 57.264 C 81.612 57.387,81.629 58.124,81.833 58.250 C 81.925 58.307,82.000 58.493,82.000 58.664 C 82.000 58.835,82.202 59.214,82.448 59.507 C 83.340 60.567,84.715 60.084,86.106 58.222 C 86.368 57.871,86.789 57.371,87.042 57.112 C 87.294 56.853,87.500 56.575,87.500 56.494 C 87.500 56.413,87.635 56.212,87.801 56.048 C 88.365 55.488,89.833 53.537,89.833 53.346 C 89.833 53.242,89.946 53.113,90.083 53.060 C 90.221 53.008,90.333 52.860,90.333 52.732 C 90.333 52.604,90.394 52.500,90.469 52.500 C 90.544 52.500,90.975 52.116,91.427 51.646 C 93.208 49.797,94.260 48.833,94.496 48.833 C 94.567 48.833,94.721 48.719,94.837 48.579 C 95.157 48.194,96.484 47.333,96.758 47.333 C 96.891 47.333,97.000 47.221,97.000 47.083 C 97.000 46.946,97.076 46.833,97.169 46.833 C 97.330 46.833,98.912 46.074,100.500 45.234 C 100.912 45.015,101.389 44.836,101.558 44.835 C 101.728 44.834,102.103 44.728,102.391 44.599 C 103.758 43.989,105.744 43.546,107.833 43.386 C 108.429 43.340,108.992 43.244,109.083 43.173 C 109.489 42.856,115.355 43.358,118.617 43.988 C 124.615 45.145,126.239 42.753,121.749 39.375 C 119.787 37.899,118.397 36.774,118.283 36.571 C 118.210 36.440,118.039 36.333,117.903 36.333 C 117.767 36.333,117.612 36.218,117.558 36.077 C 117.504 35.936,117.260 35.718,117.015 35.591 C 116.498 35.323,113.759 32.625,113.456 32.085 C 113.343 31.882,112.861 31.201,112.385 30.571 C 111.909 29.942,111.287 28.974,111.001 28.422 C 110.716 27.869,110.425 27.304,110.353 27.167 C 109.412 25.359,109.022 24.475,108.926 23.938 C 108.862 23.583,108.744 23.170,108.664 23.021 C 107.677 21.201,107.220 12.296,107.981 9.717 C 108.067 9.424,108.188 8.674,108.250 8.051 C 108.311 7.427,108.395 6.729,108.435 6.500 C 108.997 3.296,108.532 2.000,106.822 2.000 C 105.958 2.000,105.814 2.052,105.389 2.522 M45.439 5.830 C 45.176 5.913,44.389 5.981,43.689 5.981 C 41.771 5.981,38.605 6.192,38.417 6.333 C 38.325 6.401,37.688 6.508,37.000 6.571 C 35.647 6.693,33.759 7.086,33.294 7.341 C 33.135 7.428,32.820 7.500,32.595 7.500 C 32.370 7.500,32.140 7.575,32.083 7.667 C 32.027 7.758,31.815 7.833,31.613 7.833 C 31.247 7.833,28.884 8.528,28.250 8.822 C 28.067 8.907,27.617 9.066,27.250 9.176 C 26.883 9.286,26.471 9.465,26.333 9.575 C 26.081 9.776,24.129 10.667,23.940 10.667 C 23.759 10.667,21.585 12.037,21.528 12.188 C 21.497 12.268,21.402 12.333,21.316 12.333 C 21.095 12.333,19.777 13.205,19.617 13.457 C 19.543 13.572,19.375 13.667,19.242 13.667 C 19.109 13.667,19.000 13.779,19.000 13.917 C 19.000 14.054,18.888 14.167,18.751 14.167 C 18.615 14.167,18.409 14.317,18.295 14.500 C 18.180 14.683,18.007 14.833,17.911 14.833 C 17.313 14.833,12.249 20.402,11.508 21.875 C 11.381 22.127,11.216 22.333,11.142 22.333 C 10.565 22.333,9.986 25.803,10.441 26.539 C 10.495 26.626,10.535 26.998,10.530 27.364 C 10.516 28.368,11.583 32.861,11.861 32.972 C 11.938 33.003,12.000 33.157,12.000 33.316 C 12.000 33.475,12.187 33.993,12.417 34.468 C 12.646 34.943,12.833 35.445,12.833 35.583 C 12.833 35.720,12.908 35.833,13.000 35.833 C 13.092 35.833,13.167 35.974,13.167 36.146 C 13.167 36.318,13.279 36.553,13.417 36.667 C 13.554 36.781,13.667 36.929,13.667 36.995 C 13.667 37.223,14.883 39.167,15.025 39.167 C 15.103 39.167,15.167 39.282,15.167 39.422 C 15.167 39.562,15.279 39.720,15.417 39.773 C 15.554 39.826,15.667 39.976,15.667 40.106 C 15.667 40.237,15.779 40.387,15.917 40.440 C 16.054 40.492,16.167 40.642,16.167 40.773 C 16.167 40.904,16.279 41.054,16.417 41.106 C 16.554 41.159,16.667 41.309,16.667 41.440 C 16.667 41.570,16.779 41.720,16.917 41.773 C 17.054 41.826,17.167 41.942,17.167 42.031 C 17.167 42.181,19.880 44.923,21.176 46.083 C 22.229 47.026,25.518 49.333,25.809 49.333 C 25.914 49.333,26.000 49.408,26.000 49.499 C 26.000 49.590,26.356 49.828,26.792 50.028 C 27.227 50.228,27.808 50.547,28.082 50.737 C 28.753 51.203,31.321 52.500,31.572 52.500 C 31.682 52.500,32.217 52.728,32.761 53.007 C 33.305 53.286,34.087 53.598,34.500 53.701 C 34.912 53.803,35.287 53.931,35.333 53.985 C 35.518 54.203,37.152 54.662,37.400 54.567 C 37.812 54.409,37.604 53.333,37.162 53.333 C 36.990 53.333,36.273 52.763,35.853 52.292 C 35.710 52.131,35.530 52.000,35.452 52.000 C 35.244 52.000,32.000 48.756,32.000 48.548 C 32.000 48.449,31.888 48.326,31.750 48.273 C 31.613 48.220,31.500 48.092,31.500 47.988 C 31.500 47.883,31.275 47.514,31.000 47.167 C 30.725 46.819,30.500 46.450,30.500 46.346 C 30.500 46.242,30.387 46.113,30.250 46.060 C 30.113 46.008,30.000 45.868,30.000 45.749 C 30.000 45.631,29.777 45.084,29.504 44.535 C 28.092 41.690,27.366 36.715,27.892 33.500 C 27.944 33.179,28.030 32.446,28.082 31.872 C 28.134 31.297,28.246 30.659,28.331 30.455 C 28.416 30.251,28.646 29.483,28.842 28.750 C 29.039 28.017,29.267 27.345,29.350 27.258 C 29.432 27.171,29.500 26.967,29.500 26.805 C 29.500 26.643,29.688 26.100,29.917 25.599 C 30.146 25.098,30.333 24.640,30.333 24.582 C 30.333 24.524,30.545 24.163,30.803 23.780 C 31.062 23.397,31.371 22.840,31.490 22.542 C 31.609 22.244,31.754 21.999,31.812 21.998 C 31.870 21.997,32.062 21.678,32.240 21.290 C 32.418 20.901,32.649 20.508,32.752 20.417 C 32.856 20.325,33.345 19.688,33.839 19.000 C 34.333 18.313,34.834 17.690,34.952 17.617 C 35.070 17.543,35.167 17.375,35.167 17.242 C 35.167 17.109,35.229 17.000,35.306 17.000 C 35.529 17.000,37.660 14.705,37.664 14.458 C 37.666 14.390,37.763 14.333,37.881 14.333 C 37.999 14.333,38.453 13.996,38.890 13.583 C 39.326 13.171,39.728 12.833,39.782 12.833 C 39.836 12.833,39.963 12.728,40.065 12.600 C 40.167 12.472,41.037 11.799,42.000 11.104 C 42.962 10.409,43.841 9.763,43.951 9.670 C 44.062 9.576,44.206 9.500,44.272 9.500 C 44.337 9.500,44.509 9.399,44.654 9.275 C 44.798 9.151,45.254 8.870,45.667 8.651 C 46.079 8.432,46.642 8.094,46.917 7.900 C 47.567 7.441,48.487 7.000,48.794 7.000 C 49.059 7.000,48.955 6.232,48.647 5.918 C 48.435 5.701,46.053 5.636,45.439 5.830 M187.861 9.919 C 187.387 10.318,186.833 11.545,186.833 12.196 C 186.833 12.363,186.774 12.500,186.701 12.500 C 186.629 12.500,186.423 13.038,186.243 13.696 C 186.064 14.354,185.842 14.973,185.750 15.073 C 185.585 15.254,185.279 15.851,184.748 17.032 C 184.492 17.601,183.851 18.432,182.218 20.315 C 181.869 20.717,181.321 21.215,181.000 21.422 C 180.679 21.628,180.124 22.061,179.766 22.384 C 179.082 23.001,178.930 23.091,177.583 23.679 C 177.125 23.879,176.713 24.097,176.667 24.163 C 176.621 24.229,175.946 24.489,175.167 24.740 C 174.387 24.991,173.525 25.291,173.250 25.406 C 172.975 25.522,172.504 25.713,172.203 25.831 C 170.156 26.632,170.944 28.868,173.465 29.411 C 175.023 29.747,178.198 30.979,178.417 31.334 C 178.554 31.556,180.679 33.013,181.099 33.173 C 181.303 33.250,181.715 33.675,182.014 34.115 C 182.313 34.556,182.901 35.265,183.320 35.691 C 183.740 36.116,184.380 37.054,184.742 37.774 C 185.104 38.494,185.482 39.196,185.583 39.333 C 185.683 39.471,185.904 39.996,186.074 40.500 C 186.244 41.004,186.439 41.492,186.507 41.583 C 186.575 41.675,186.764 42.237,186.926 42.833 C 187.834 46.165,189.977 45.760,191.068 42.051 C 191.801 39.560,192.079 38.939,193.262 37.143 C 194.519 35.234,196.739 32.892,197.807 32.347 C 198.183 32.155,198.745 31.774,199.057 31.501 C 199.687 30.947,201.860 30.060,203.971 29.495 C 207.714 28.493,207.511 26.418,203.543 25.112 C 202.282 24.697,200.875 24.156,200.417 23.910 C 199.958 23.664,199.218 23.271,198.771 23.036 C 198.070 22.668,196.399 21.299,195.000 19.945 C 194.771 19.723,194.246 19.008,193.833 18.357 C 193.421 17.706,193.034 17.171,192.973 17.170 C 192.702 17.162,191.510 14.421,191.095 12.849 C 190.284 9.773,189.200 8.792,187.861 9.919 M110.946 14.130 C 110.889 14.934,110.876 15.853,110.917 16.171 C 110.958 16.490,111.077 17.537,111.182 18.500 C 111.287 19.462,111.514 20.565,111.686 20.949 C 111.859 21.334,112.000 21.752,112.000 21.878 C 112.000 23.476,115.926 30.500,116.819 30.500 C 116.947 30.500,117.000 27.884,117.000 21.583 L 117.000 12.667 114.025 12.667 L 111.050 12.667 110.946 14.130 M368.500 25.118 C 368.004 25.300,367.662 25.732,367.482 26.401 C 367.381 26.776,367.245 27.121,367.178 27.167 C 367.112 27.212,366.848 28.113,366.591 29.167 C 365.647 33.041,364.859 35.667,364.640 35.667 C 364.563 35.667,364.500 35.777,364.500 35.911 C 364.500 36.275,362.491 40.333,362.311 40.333 C 362.226 40.333,362.108 40.465,362.050 40.625 C 361.789 41.342,357.910 45.833,357.552 45.833 C 357.519 45.833,356.991 46.246,356.380 46.750 C 355.769 47.254,355.189 47.668,355.093 47.670 C 354.996 47.671,354.758 47.840,354.564 48.045 C 354.167 48.464,351.846 49.649,350.586 50.075 C 350.130 50.229,349.715 50.421,349.666 50.501 C 349.552 50.686,347.453 51.292,344.167 52.088 C 342.746 52.432,341.546 52.770,341.500 52.840 C 341.454 52.909,341.102 53.050,340.717 53.153 C 339.426 53.500,338.972 54.713,339.816 55.557 C 340.090 55.830,344.344 57.070,346.210 57.420 C 346.553 57.484,346.833 57.600,346.833 57.678 C 346.833 57.755,347.115 57.870,347.458 57.934 C 349.211 58.259,351.002 59.047,354.948 61.227 C 355.257 61.398,355.939 61.940,356.463 62.432 C 356.988 62.924,357.499 63.328,357.599 63.330 C 357.784 63.333,361.014 66.710,361.167 67.060 C 361.337 67.449,362.215 68.667,362.325 68.667 C 362.465 68.667,363.872 71.449,364.284 72.541 C 364.449 72.976,364.635 73.332,364.698 73.333 C 364.867 73.334,365.563 75.709,366.332 78.911 C 366.704 80.459,367.071 81.806,367.149 81.904 C 367.226 82.003,367.374 82.346,367.478 82.668 C 368.426 85.617,369.892 84.503,371.016 79.977 C 371.380 78.511,371.744 77.184,371.826 77.030 C 371.907 76.876,372.280 75.775,372.656 74.583 C 373.321 72.473,374.052 70.680,374.318 70.504 C 374.391 70.456,374.698 69.967,375.001 69.417 C 375.304 68.867,375.728 68.185,375.943 67.901 C 376.158 67.617,376.333 67.338,376.333 67.279 C 376.333 67.221,376.783 66.703,377.332 66.128 C 377.882 65.554,378.332 64.992,378.332 64.880 C 378.333 64.769,378.727 64.383,379.208 64.023 C 379.690 63.663,380.399 63.061,380.785 62.684 C 381.171 62.308,381.533 62.000,381.588 62.000 C 381.644 62.000,381.928 61.820,382.219 61.600 C 382.511 61.380,383.219 60.956,383.792 60.658 C 384.365 60.360,384.833 60.060,384.833 59.991 C 384.833 59.803,387.450 58.747,389.202 58.227 C 390.053 57.974,390.787 57.719,390.833 57.661 C 390.879 57.603,392.192 57.238,393.750 56.850 C 396.880 56.071,398.000 55.652,398.000 55.259 C 398.000 55.117,398.075 55.000,398.167 55.000 C 398.983 55.000,397.939 53.502,396.883 53.158 C 396.535 53.045,396.212 52.899,396.167 52.835 C 396.121 52.770,395.071 52.472,393.833 52.172 C 390.982 51.480,388.108 50.663,388.000 50.512 C 387.954 50.448,387.467 50.220,386.917 50.004 C 385.728 49.539,383.404 48.377,383.119 48.104 C 382.628 47.637,381.520 46.833,381.366 46.833 C 381.273 46.833,380.751 46.383,380.206 45.833 C 379.662 45.283,379.133 44.833,379.032 44.833 C 378.930 44.833,378.416 44.290,377.889 43.625 C 377.361 42.960,376.728 42.213,376.483 41.963 C 376.237 41.714,375.730 40.953,375.356 40.272 C 374.982 39.591,374.579 38.932,374.460 38.809 C 373.949 38.276,372.000 33.059,372.000 32.222 C 372.000 32.100,371.925 32.000,371.833 32.000 C 371.742 32.000,371.667 31.880,371.667 31.733 C 371.667 30.519,369.975 25.414,369.531 25.285 C 369.376 25.241,369.137 25.164,369.000 25.115 C 368.863 25.066,368.637 25.068,368.500 25.118 M8.504 27.574 C 8.319 27.982,8.167 28.437,8.167 28.585 C 8.167 28.734,8.076 29.019,7.966 29.219 C 7.855 29.420,7.739 29.771,7.706 30.000 C 7.674 30.229,7.545 30.792,7.420 31.250 C 7.219 31.984,6.995 33.410,6.919 34.425 C 6.905 34.613,6.842 34.852,6.778 34.955 C 6.714 35.059,6.737 35.191,6.831 35.248 C 7.025 35.368,7.064 36.167,6.875 36.167 C 6.686 36.167,6.633 38.676,6.809 39.269 C 6.894 39.555,6.901 39.890,6.825 40.014 C 6.745 40.143,6.762 40.330,6.863 40.453 C 6.992 40.607,6.983 40.667,6.833 40.667 C 6.679 40.667,6.673 40.724,6.811 40.890 C 6.913 41.013,6.990 41.406,6.982 41.765 C 6.960 42.783,7.132 44.520,7.344 45.425 C 7.530 46.222,7.614 46.720,7.728 47.724 C 7.758 47.985,7.858 48.248,7.949 48.308 C 8.041 48.368,8.168 48.746,8.231 49.149 C 8.294 49.552,8.487 50.227,8.662 50.649 C 8.836 51.071,9.184 51.960,9.437 52.625 C 9.689 53.290,9.957 53.833,10.031 53.833 C 10.106 53.833,10.167 53.950,10.167 54.092 C 10.167 54.355,11.039 56.041,11.413 56.500 C 11.525 56.637,11.666 56.862,11.727 57.000 C 11.787 57.137,11.987 57.475,12.170 57.750 C 12.354 58.025,12.549 58.381,12.605 58.542 C 12.660 58.702,12.809 58.833,12.936 58.833 C 13.063 58.833,13.168 58.927,13.169 59.042 C 13.172 59.226,13.612 59.820,14.406 60.708 C 14.549 60.869,14.667 61.075,14.667 61.167 C 14.667 61.258,14.779 61.333,14.917 61.333 C 15.054 61.333,15.167 61.411,15.167 61.507 C 15.167 61.723,16.973 63.534,18.073 64.420 C 18.526 64.785,19.162 65.324,19.486 65.619 C 19.810 65.914,20.321 66.287,20.621 66.449 C 20.921 66.610,21.167 66.800,21.167 66.871 C 21.167 66.942,21.273 67.000,21.403 67.000 C 21.533 67.000,21.664 67.056,21.694 67.125 C 21.804 67.371,22.983 68.167,23.239 68.167 C 23.382 68.167,23.500 68.279,23.500 68.417 C 23.500 68.554,23.586 68.667,23.692 68.667 C 23.926 68.667,25.716 69.520,25.836 69.689 C 25.982 69.894,28.065 70.833,28.375 70.833 C 28.535 70.833,28.667 70.908,28.667 71.000 C 28.667 71.092,28.752 71.167,28.857 71.167 C 28.961 71.167,29.355 71.307,29.732 71.479 C 31.391 72.235,31.798 72.409,32.583 72.700 C 33.796 73.150,35.059 73.483,35.206 73.393 C 35.276 73.349,35.333 73.385,35.333 73.472 C 35.333 73.559,35.540 73.680,35.792 73.740 C 36.555 73.921,41.063 75.355,41.368 75.513 C 41.524 75.594,41.955 75.709,42.326 75.768 C 42.697 75.827,43.000 75.933,43.000 76.003 C 43.000 76.073,43.281 76.182,43.625 76.247 C 43.969 76.311,44.550 76.497,44.917 76.660 C 45.283 76.823,46.108 77.162,46.750 77.414 C 47.392 77.665,47.994 77.933,48.087 78.008 C 48.181 78.084,48.669 78.198,49.171 78.261 C 49.673 78.325,50.158 78.431,50.250 78.496 C 50.342 78.561,51.092 78.712,51.917 78.831 C 52.742 78.950,53.567 79.142,53.750 79.257 C 53.933 79.373,54.346 79.517,54.667 79.577 C 54.987 79.637,55.400 79.754,55.583 79.837 C 55.890 79.976,56.819 80.246,58.625 80.722 C 59.015 80.825,59.333 80.961,59.333 81.025 C 59.333 81.088,59.577 81.191,59.875 81.253 C 60.173 81.315,61.026 81.655,61.771 82.008 C 62.516 82.361,63.322 82.699,63.562 82.760 C 63.803 82.820,64.000 82.936,64.000 83.018 C 64.000 83.100,64.094 83.169,64.208 83.172 C 64.323 83.175,64.717 83.323,65.083 83.500 C 65.450 83.677,65.832 83.825,65.933 83.828 C 66.033 83.831,66.249 83.981,66.413 84.162 C 66.577 84.343,66.869 84.541,67.064 84.602 C 67.258 84.663,67.717 84.911,68.083 85.153 C 68.450 85.395,68.956 85.698,69.208 85.825 C 69.460 85.952,69.667 86.119,69.667 86.195 C 69.667 86.271,69.753 86.333,69.859 86.333 C 69.965 86.333,70.298 86.521,70.598 86.750 C 70.899 86.979,71.192 87.167,71.251 87.167 C 71.309 87.167,71.458 87.260,71.580 87.375 C 71.703 87.490,72.446 88.071,73.230 88.667 C 74.015 89.263,74.659 89.844,74.662 89.958 C 74.664 90.073,74.753 90.167,74.859 90.167 C 74.965 90.167,75.762 90.879,76.630 91.750 C 77.498 92.621,78.274 93.333,78.354 93.333 C 78.434 93.333,78.500 93.483,78.500 93.667 C 78.500 93.850,78.561 94.000,78.636 94.000 C 79.162 94.000,83.329 100.922,83.332 101.802 C 83.333 101.923,83.483 102.373,83.666 102.802 C 83.849 103.232,84.024 103.823,84.055 104.116 C 84.085 104.408,84.188 104.746,84.282 104.866 C 84.377 104.985,84.460 105.196,84.467 105.333 C 84.694 110.100,85.598 110.842,86.663 107.136 C 86.961 106.099,87.274 104.725,87.358 104.083 C 87.442 103.442,87.572 102.804,87.647 102.667 C 87.982 102.051,87.993 93.869,87.660 93.662 C 87.510 93.570,87.513 93.523,87.672 93.471 C 87.826 93.419,87.835 93.315,87.708 93.075 C 87.613 92.896,87.488 92.155,87.430 91.429 C 87.372 90.702,87.255 90.024,87.170 89.921 C 87.085 89.819,87.024 89.588,87.034 89.409 C 87.062 88.929,86.666 87.186,86.508 87.088 C 86.433 87.042,86.322 86.743,86.263 86.425 C 86.203 86.107,85.967 85.412,85.738 84.881 C 85.509 84.351,85.263 83.767,85.190 83.583 C 84.990 83.079,84.319 81.616,84.157 81.333 C 84.011 81.077,83.163 79.678,82.792 79.083 C 82.453 78.537,81.310 76.978,81.020 76.664 C 80.871 76.504,80.637 76.222,80.500 76.037 C 79.795 75.091,77.739 73.096,75.996 71.667 C 75.604 71.346,75.145 70.952,74.976 70.792 C 74.806 70.631,74.637 70.500,74.601 70.500 C 74.564 70.500,73.832 70.031,72.974 69.458 C 70.988 68.133,70.959 68.115,69.667 67.488 C 69.071 67.199,68.546 66.915,68.500 66.856 C 68.454 66.798,68.154 66.629,67.833 66.481 C 67.512 66.334,66.837 66.022,66.333 65.789 C 65.829 65.556,65.117 65.254,64.750 65.117 C 64.383 64.980,63.624 64.673,63.062 64.434 C 62.501 64.195,61.963 64.000,61.868 64.000 C 61.772 64.000,61.481 63.891,61.222 63.758 C 60.962 63.625,60.188 63.352,59.500 63.150 C 57.062 62.435,52.516 60.976,51.750 60.662 C 51.567 60.587,51.208 60.481,50.954 60.425 C 50.514 60.330,48.908 59.667,48.297 59.329 C 47.860 59.087,46.758 58.832,44.833 58.527 C 43.871 58.375,43.008 58.201,42.917 58.142 C 42.825 58.082,42.318 57.980,41.789 57.914 C 41.261 57.848,40.788 57.728,40.738 57.647 C 40.688 57.566,40.500 57.500,40.321 57.500 C 40.142 57.500,39.865 57.431,39.706 57.348 C 39.327 57.148,35.905 56.060,35.210 55.918 C 34.913 55.857,34.628 55.738,34.575 55.654 C 34.523 55.569,34.364 55.500,34.222 55.500 C 33.977 55.500,33.241 55.177,30.574 53.897 C 29.927 53.587,29.308 53.333,29.199 53.333 C 29.090 53.333,28.999 53.277,28.998 53.208 C 28.998 53.140,28.660 52.935,28.248 52.754 C 27.837 52.573,27.500 52.384,27.500 52.334 C 27.500 52.284,27.144 52.057,26.708 51.830 C 26.273 51.603,25.738 51.285,25.519 51.125 C 25.301 50.965,25.023 50.833,24.902 50.833 C 24.781 50.833,24.505 50.665,24.290 50.458 C 24.074 50.252,23.722 49.971,23.509 49.833 C 23.295 49.696,22.914 49.415,22.661 49.208 C 22.409 49.002,22.119 48.833,22.018 48.833 C 21.916 48.833,21.833 48.766,21.833 48.683 C 21.833 48.600,21.615 48.394,21.347 48.225 C 20.762 47.853,18.526 45.839,17.687 44.927 C 17.355 44.565,16.783 43.951,16.417 43.561 C 15.570 42.662,15.333 42.373,15.333 42.243 C 15.333 42.186,15.081 41.827,14.773 41.445 C 13.420 39.765,11.559 36.141,10.866 33.833 C 10.379 32.213,10.275 31.774,10.319 31.518 C 10.341 31.390,10.278 31.236,10.180 31.175 C 10.081 31.114,9.953 30.244,9.895 29.240 C 9.751 26.757,9.185 26.080,8.504 27.574 M109.833 46.628 C 107.675 46.732,103.000 47.674,103.000 48.005 C 103.000 48.079,102.756 48.193,102.458 48.258 C 101.790 48.403,98.808 49.883,98.438 50.253 C 98.189 50.501,98.167 53.539,98.167 86.845 L 98.167 123.167 107.583 123.167 L 117.000 123.167 117.005 100.708 C 117.010 77.999,117.041 76.777,117.647 74.888 C 119.385 69.477,125.248 65.834,131.610 66.214 C 133.011 66.297,135.621 66.891,135.833 67.175 C 135.879 67.236,136.479 67.572,137.167 67.922 C 139.598 69.158,141.089 70.970,142.721 74.672 C 143.302 75.989,143.331 77.179,143.332 100.292 L 143.333 123.167 152.833 123.167 L 162.333 123.167 162.333 99.292 C 162.333 76.564,162.259 72.335,161.847 71.417 C 161.765 71.233,161.569 70.446,161.411 69.667 C 160.887 67.071,160.235 65.316,158.811 62.667 C 157.773 60.734,155.756 57.961,154.771 57.111 C 154.576 56.943,153.967 56.372,153.417 55.842 C 152.867 55.312,151.779 54.454,151.000 53.935 C 150.221 53.416,149.486 52.912,149.366 52.814 C 148.666 52.242,144.516 50.561,142.417 49.999 C 139.725 49.279,134.388 49.023,131.667 49.484 C 130.131 49.744,127.809 50.316,127.583 50.490 C 127.492 50.561,126.817 50.827,126.083 51.082 C 124.680 51.569,122.581 52.562,122.246 52.897 C 122.137 53.005,121.564 53.378,120.971 53.725 C 120.378 54.071,119.621 54.594,119.288 54.886 C 118.956 55.178,118.305 55.740,117.842 56.134 L 117.000 56.852 117.000 52.009 C 117.000 48.763,116.943 47.167,116.826 47.167 C 116.731 47.167,115.700 47.058,114.535 46.925 C 111.935 46.629,111.014 46.571,109.833 46.628 M252.567 49.348 C 250.870 49.500,247.788 50.090,247.282 50.361 C 247.101 50.458,246.344 50.744,245.601 50.998 C 244.098 51.510,241.667 52.629,241.667 52.808 C 241.667 52.872,241.385 53.070,241.042 53.248 C 239.983 53.797,238.526 54.818,237.319 55.857 L 236.167 56.849 236.167 53.758 L 236.167 50.667 226.750 50.667 L 217.333 50.667 217.333 86.917 L 217.333 123.167 226.746 123.167 L 236.158 123.167 236.205 99.958 L 236.253 76.750 236.629 75.417 C 237.043 73.949,237.842 72.223,238.428 71.530 C 240.612 68.947,240.904 68.701,243.333 67.386 C 246.276 65.793,250.603 65.515,254.241 66.685 C 254.786 66.860,255.274 67.062,255.325 67.133 C 255.375 67.204,255.993 67.589,256.698 67.988 C 258.882 69.226,260.979 71.899,261.677 74.333 C 261.795 74.746,261.952 75.164,262.026 75.263 C 262.435 75.811,262.494 78.936,262.497 100.458 L 262.500 123.167 272.006 123.167 L 281.511 123.167 281.464 98.026 C 281.430 79.825,281.365 72.820,281.231 72.651 C 281.128 72.522,280.993 72.004,280.930 71.500 C 280.675 69.449,279.259 64.625,278.826 64.333 C 278.758 64.287,278.432 63.695,278.102 63.016 C 277.385 61.542,276.523 60.167,276.316 60.167 C 276.234 60.167,276.167 60.084,276.167 59.982 C 276.167 59.126,270.114 53.334,269.217 53.333 C 269.144 53.333,268.858 53.137,268.583 52.897 C 268.023 52.409,266.252 51.554,264.250 50.806 C 260.598 49.442,256.811 48.969,252.567 49.348 M179.500 86.917 L 179.500 123.167 188.833 123.167 L 198.167 123.167 198.167 86.917 L 198.167 50.667 188.833 50.667 L 179.500 50.667 179.500 86.917 M289.167 50.769 C 289.167 50.984,290.383 54.106,290.684 54.663 C 290.984 55.218,291.770 57.153,294.274 63.498 C 294.871 65.010,295.420 66.322,295.496 66.415 C 295.571 66.507,296.092 67.778,296.653 69.237 C 297.214 70.697,297.737 71.972,297.815 72.071 C 297.892 72.169,298.427 73.487,299.002 75.000 C 299.578 76.512,300.143 77.862,300.257 78.000 C 300.372 78.137,300.579 78.587,300.718 79.000 C 301.134 80.234,302.502 83.717,302.645 83.907 C 302.779 84.084,303.118 84.909,304.257 87.833 C 304.596 88.704,304.940 89.500,305.021 89.601 C 305.102 89.703,305.388 90.378,305.656 91.101 C 306.675 93.850,307.144 95.022,307.303 95.216 C 307.393 95.326,307.706 96.054,307.998 96.833 C 308.924 99.305,309.708 101.239,309.922 101.583 C 310.037 101.767,310.520 102.967,310.997 104.250 C 311.473 105.533,311.966 106.745,312.091 106.942 C 312.217 107.139,312.701 108.301,313.169 109.525 C 313.636 110.749,314.203 112.143,314.430 112.624 C 314.657 113.104,315.294 114.676,315.846 116.117 C 316.399 117.558,316.915 118.815,316.993 118.910 C 317.071 119.005,317.410 119.803,317.746 120.682 L 318.357 122.281 317.929 123.336 C 317.693 123.916,317.500 124.459,317.500 124.543 C 317.500 124.627,317.276 125.158,317.002 125.723 C 316.729 126.288,316.125 127.800,315.661 129.083 C 315.197 130.367,314.635 131.792,314.412 132.250 C 314.189 132.708,313.862 133.496,313.685 134.000 C 312.889 136.264,312.322 137.730,312.171 137.911 C 312.036 138.074,311.426 139.667,310.126 143.250 C 310.026 143.525,309.850 143.900,309.735 144.083 C 309.524 144.418,308.167 148.020,308.167 148.245 C 308.167 148.311,307.915 148.902,307.608 149.558 C 307.300 150.213,306.842 151.313,306.590 152.000 C 306.338 152.688,305.915 153.829,305.649 154.536 C 305.384 155.244,305.167 155.901,305.167 155.996 C 305.167 156.115,308.254 156.156,314.935 156.126 L 324.704 156.083 325.492 153.990 C 325.925 152.838,326.469 151.488,326.701 150.990 C 326.933 150.491,327.523 148.996,328.013 147.667 C 328.502 146.337,328.961 145.209,329.032 145.159 C 329.103 145.108,329.379 144.471,329.645 143.742 C 330.870 140.386,331.167 139.616,331.302 139.439 C 331.381 139.335,331.683 138.631,331.973 137.875 C 332.263 137.119,332.725 135.919,333.001 135.208 C 333.276 134.498,333.501 133.823,333.501 133.708 C 333.500 133.594,333.565 133.500,333.644 133.500 C 333.723 133.500,334.184 132.431,334.668 131.125 C 335.153 129.819,335.754 128.300,336.004 127.750 C 336.254 127.200,336.894 125.587,337.427 124.167 C 337.960 122.746,338.446 121.546,338.508 121.500 C 338.569 121.454,339.011 120.367,339.490 119.083 C 339.970 117.800,340.534 116.375,340.744 115.917 C 340.955 115.458,341.552 113.958,342.072 112.583 C 342.591 111.208,343.153 109.821,343.321 109.500 C 343.489 109.179,344.061 107.754,344.591 106.333 C 345.122 104.912,345.603 103.712,345.661 103.667 C 345.718 103.621,346.015 102.908,346.320 102.083 C 347.227 99.634,347.832 98.110,348.074 97.667 C 348.199 97.438,348.731 96.087,349.256 94.667 C 349.781 93.246,350.269 92.008,350.340 91.917 C 350.483 91.732,351.345 89.560,352.192 87.250 C 352.494 86.425,352.799 85.709,352.868 85.659 C 352.937 85.608,353.214 84.971,353.482 84.242 C 353.750 83.513,354.201 82.287,354.484 81.518 C 354.767 80.749,355.068 80.036,355.152 79.935 C 355.338 79.709,357.333 74.457,357.333 74.190 C 357.333 74.086,357.400 74.000,357.481 74.000 C 357.563 74.000,357.906 73.248,358.243 72.330 L 358.857 70.659 358.387 70.021 C 357.690 69.076,355.457 66.579,355.150 66.403 C 355.004 66.319,354.216 65.746,353.400 65.130 C 352.584 64.514,351.654 63.887,351.333 63.737 C 351.012 63.586,350.150 63.180,349.417 62.834 C 347.470 61.914,343.083 60.669,342.816 60.960 C 342.754 61.028,342.319 62.202,341.849 63.569 C 341.380 64.936,340.933 66.136,340.856 66.236 C 340.780 66.335,340.244 67.767,339.667 69.417 C 339.089 71.067,338.557 72.494,338.484 72.589 C 338.309 72.818,336.169 78.856,336.168 79.125 C 336.167 79.240,336.100 79.333,336.019 79.333 C 335.938 79.333,335.834 79.465,335.787 79.625 C 335.486 80.651,333.762 85.432,333.668 85.500 C 333.605 85.546,333.126 86.821,332.604 88.333 C 332.081 89.846,331.508 91.389,331.330 91.763 C 331.044 92.362,329.290 97.205,329.040 98.083 C 328.988 98.267,328.902 98.454,328.848 98.500 C 328.794 98.546,328.635 98.833,328.496 99.137 L 328.242 99.691 327.429 97.387 C 326.982 96.120,326.558 95.007,326.487 94.914 C 326.416 94.821,325.895 93.433,325.329 91.831 C 324.764 90.228,324.234 88.892,324.151 88.861 C 324.068 88.831,324.000 88.731,324.000 88.639 C 324.000 88.352,321.995 82.778,321.813 82.558 C 321.717 82.443,321.538 82.027,321.416 81.633 C 320.931 80.075,319.492 76.108,319.349 75.934 C 319.265 75.833,319.045 75.300,318.858 74.750 C 318.073 72.431,317.153 69.934,317.024 69.765 C 316.947 69.665,316.410 68.233,315.830 66.583 C 315.250 64.933,314.728 63.546,314.669 63.500 C 314.611 63.454,314.090 62.067,313.513 60.417 C 312.935 58.767,312.372 57.267,312.262 57.083 C 312.151 56.900,311.583 55.381,311.000 53.708 L 309.939 50.667 299.553 50.667 C 293.840 50.667,289.167 50.713,289.167 50.769 M58.175 82.740 C 57.897 83.075,58.091 83.580,58.631 83.928 C 59.141 84.256,59.477 84.563,61.542 86.589 C 62.344 87.377,63.000 88.083,63.000 88.159 C 63.000 88.236,63.225 88.539,63.500 88.833 C 63.775 89.128,64.000 89.473,64.000 89.601 C 64.000 89.729,64.075 89.833,64.167 89.833 C 64.258 89.833,64.333 89.930,64.333 90.047 C 64.333 90.165,64.592 90.748,64.909 91.344 C 65.647 92.734,66.461 95.301,66.570 96.583 C 66.617 97.133,66.717 98.033,66.792 98.583 C 67.078 100.672,66.715 105.149,66.110 107.011 C 65.978 107.418,65.821 107.975,65.760 108.250 C 65.636 108.820,64.606 111.513,64.242 112.222 C 64.109 112.481,64.000 112.791,64.000 112.910 C 64.000 113.029,63.883 113.223,63.741 113.341 C 63.598 113.459,63.262 113.999,62.993 114.541 C 62.724 115.082,62.354 115.717,62.169 115.952 C 61.984 116.186,61.833 116.443,61.833 116.522 C 61.833 116.602,61.720 116.798,61.582 116.958 C 61.444 117.119,60.904 117.775,60.383 118.417 C 58.858 120.293,57.004 122.234,55.653 123.368 C 55.248 123.708,54.631 124.252,54.282 124.576 C 53.934 124.901,53.603 125.167,53.548 125.167 C 53.493 125.167,53.202 125.354,52.902 125.583 C 52.601 125.813,52.313 126.000,52.261 126.000 C 52.209 126.000,52.022 126.131,51.845 126.292 C 51.185 126.891,50.921 127.089,50.507 127.293 C 50.274 127.408,49.783 127.686,49.417 127.910 C 49.050 128.134,48.637 128.370,48.500 128.434 C 48.362 128.498,48.115 128.667,47.949 128.810 C 47.784 128.952,47.263 129.265,46.792 129.506 C 45.792 130.018,45.455 130.427,45.833 130.669 C 46.312 130.974,54.780 130.674,54.999 130.344 C 55.045 130.274,55.758 130.141,56.583 130.048 C 58.014 129.886,60.707 129.300,61.417 128.995 C 61.600 128.917,62.087 128.803,62.500 128.744 C 62.913 128.684,63.455 128.536,63.707 128.415 C 63.958 128.293,64.408 128.142,64.707 128.078 C 65.005 128.014,65.325 127.908,65.417 127.843 C 65.508 127.778,65.915 127.630,66.321 127.514 C 66.727 127.397,67.326 127.159,67.652 126.984 C 67.978 126.810,68.340 126.667,68.456 126.667 C 68.572 126.667,68.667 126.601,68.667 126.521 C 68.667 126.441,68.885 126.331,69.153 126.278 C 69.420 126.224,70.509 125.671,71.573 125.049 C 72.636 124.426,73.636 123.842,73.795 123.750 C 74.317 123.448,76.082 122.107,76.139 121.969 C 76.169 121.894,76.263 121.833,76.347 121.833 C 76.729 121.833,80.652 117.892,81.789 116.366 C 82.041 116.027,82.286 115.712,82.332 115.667 C 82.379 115.621,82.492 115.463,82.583 115.315 C 82.675 115.168,83.117 114.506,83.565 113.844 L 84.381 112.640 84.260 110.945 C 84.103 108.739,84.088 108.610,83.958 108.400 C 83.897 108.302,83.810 107.833,83.763 107.358 C 83.692 106.629,83.135 104.652,82.653 103.417 C 82.212 102.285,81.579 100.880,81.414 100.667 C 81.308 100.529,81.125 100.173,81.007 99.875 C 80.889 99.577,80.736 99.333,80.666 99.333 C 80.596 99.333,80.495 99.202,80.441 99.042 C 80.332 98.719,80.211 98.521,79.268 97.126 C 78.910 96.598,78.559 96.167,78.487 96.167 C 78.415 96.167,78.314 96.035,78.262 95.875 C 78.211 95.715,77.699 95.085,77.126 94.475 C 76.553 93.866,75.856 93.116,75.579 92.808 C 75.301 92.501,74.638 91.875,74.105 91.417 C 73.572 90.958,72.955 90.418,72.735 90.216 C 72.156 89.687,70.887 88.833,70.678 88.833 C 70.580 88.833,70.500 88.771,70.500 88.694 C 70.500 88.516,68.788 87.333,68.529 87.333 C 68.422 87.333,68.333 87.276,68.333 87.207 C 68.333 87.137,67.827 86.819,67.208 86.500 C 66.590 86.180,66.046 85.876,66.000 85.822 C 65.680 85.449,60.252 83.072,59.314 82.894 C 59.004 82.835,58.666 82.721,58.564 82.641 C 58.450 82.553,58.299 82.591,58.175 82.740 M1.667 89.750 C 1.667 90.254,1.732 90.667,1.812 90.667 C 1.892 90.667,2.009 91.267,2.073 92.000 C 2.137 92.733,2.245 93.333,2.313 93.333 C 2.381 93.333,2.532 94.008,2.648 94.832 C 2.765 95.656,2.923 96.369,2.999 96.416 C 3.075 96.463,3.188 96.801,3.250 97.168 C 3.312 97.534,3.416 97.833,3.481 97.833 C 3.547 97.833,3.692 98.280,3.805 98.827 C 3.918 99.373,4.115 99.925,4.243 100.053 C 4.371 100.181,4.527 100.559,4.590 100.893 C 4.652 101.227,4.764 101.500,4.839 101.500 C 4.913 101.500,5.027 101.744,5.092 102.042 C 5.158 102.340,5.351 102.845,5.522 103.164 C 5.693 103.484,5.833 103.840,5.833 103.956 C 5.833 104.072,5.892 104.167,5.963 104.167 C 6.035 104.167,6.182 104.373,6.291 104.625 C 6.400 104.877,6.714 105.458,6.989 105.917 C 7.264 106.375,7.574 106.956,7.678 107.208 C 7.781 107.460,7.934 107.667,8.016 107.667 C 8.099 107.667,8.167 107.764,8.167 107.884 C 8.167 108.067,9.039 109.402,9.331 109.667 C 9.382 109.712,9.514 109.956,9.625 110.208 C 9.736 110.460,9.903 110.667,9.996 110.667 C 10.090 110.667,10.167 110.760,10.167 110.875 C 10.167 110.990,10.467 111.412,10.833 111.813 C 11.200 112.214,11.500 112.600,11.500 112.670 C 11.500 113.079,16.697 118.291,18.809 120.000 C 19.205 120.321,19.617 120.658,19.723 120.750 C 20.000 120.989,21.311 121.833,21.406 121.833 C 21.449 121.833,21.665 122.002,21.885 122.208 C 22.521 122.804,23.050 123.167,23.284 123.167 C 23.403 123.167,23.500 123.244,23.500 123.337 C 23.500 123.431,23.695 123.582,23.934 123.673 C 24.172 123.764,24.753 124.082,25.225 124.379 C 25.697 124.677,26.233 125.013,26.417 125.127 C 26.784 125.354,28.677 126.264,29.333 126.528 C 30.320 126.927,31.593 127.599,31.713 127.785 C 31.784 127.896,32.103 128.035,32.421 128.095 C 32.740 128.155,33.000 128.263,33.000 128.335 C 33.000 128.408,33.375 128.557,33.833 128.667 C 34.292 128.777,34.667 128.915,34.668 128.975 C 34.670 129.112,35.494 129.500,35.783 129.500 C 35.902 129.500,36.000 129.565,36.000 129.645 C 36.000 129.725,36.356 129.888,36.792 130.007 C 37.227 130.127,37.747 130.330,37.947 130.458 C 38.706 130.943,40.681 130.928,41.770 130.428 C 43.494 129.637,43.915 129.419,43.972 129.292 C 44.003 129.223,44.172 129.167,44.347 129.167 C 44.523 129.167,44.667 129.110,44.667 129.041 C 44.667 128.971,45.056 128.736,45.532 128.518 C 46.008 128.300,46.854 127.808,47.413 127.425 C 47.972 127.043,48.558 126.680,48.715 126.620 C 48.872 126.560,49.000 126.433,49.000 126.339 C 49.000 126.244,49.115 126.167,49.255 126.167 C 49.396 126.167,49.554 126.054,49.606 125.917 C 49.659 125.779,49.780 125.667,49.876 125.667 C 50.089 125.667,51.865 124.223,52.050 123.900 C 52.123 123.772,52.261 123.667,52.356 123.667 C 52.692 123.667,56.500 119.930,56.500 119.600 C 56.500 119.547,56.800 119.222,57.166 118.877 C 57.533 118.532,57.833 118.189,57.833 118.114 C 57.833 117.950,58.697 116.773,58.875 116.694 C 58.944 116.664,59.000 116.533,59.000 116.403 C 59.000 116.273,59.066 116.167,59.147 116.167 C 59.228 116.167,59.339 116.035,59.392 115.875 C 59.488 115.592,59.832 115.002,60.000 114.833 C 60.078 114.755,60.291 114.390,60.656 113.708 C 60.742 113.548,60.976 113.042,61.177 112.583 C 61.377 112.125,61.639 111.561,61.758 111.329 C 63.289 108.355,62.907 107.150,60.901 108.622 C 60.617 108.830,60.305 109.000,60.206 109.000 C 60.108 109.000,60.003 109.065,59.972 109.145 C 59.899 109.338,58.017 110.333,57.727 110.333 C 57.602 110.333,57.500 110.396,57.500 110.473 C 57.500 110.551,57.089 110.706,56.586 110.818 C 56.084 110.931,55.635 111.084,55.588 111.159 C 55.542 111.233,55.072 111.348,54.544 111.413 C 54.016 111.479,53.508 111.591,53.417 111.663 C 53.325 111.735,52.163 111.921,50.833 112.078 C 49.504 112.234,48.286 112.430,48.127 112.514 C 47.756 112.710,39.546 112.715,39.472 112.520 C 39.416 112.373,38.867 112.288,36.142 112.006 C 35.328 111.922,34.419 111.778,34.122 111.686 C 33.826 111.594,33.171 111.447,32.667 111.358 C 31.207 111.100,29.431 110.644,29.258 110.482 C 29.171 110.400,29.005 110.333,28.888 110.333 C 28.772 110.333,28.281 110.153,27.797 109.931 C 27.313 109.710,26.635 109.477,26.292 109.413 C 25.948 109.349,25.667 109.238,25.667 109.167 C 25.667 109.095,25.404 108.988,25.083 108.928 C 24.762 108.867,24.500 108.755,24.500 108.678 C 24.500 108.600,24.162 108.437,23.750 108.315 C 23.337 108.194,23.000 108.035,23.000 107.964 C 23.000 107.892,22.923 107.833,22.830 107.833 C 22.736 107.833,22.380 107.650,22.038 107.427 C 21.696 107.203,21.210 106.970,20.958 106.909 C 20.706 106.847,20.500 106.747,20.500 106.685 C 20.500 106.624,20.294 106.480,20.042 106.366 C 19.107 105.944,18.391 105.520,18.178 105.264 C 18.058 105.119,17.856 105.000,17.730 105.000 C 17.603 105.000,17.500 104.921,17.500 104.825 C 17.500 104.728,17.275 104.571,17.000 104.475 C 16.725 104.379,16.500 104.233,16.500 104.150 C 16.500 104.068,16.422 104.000,16.327 104.000 C 16.096 104.000,15.269 103.412,14.274 102.542 C 13.828 102.152,13.399 101.833,13.320 101.833 C 12.935 101.833,6.000 94.902,6.000 94.517 C 6.000 94.432,5.792 94.188,5.537 93.973 C 5.283 93.759,4.973 93.338,4.849 93.038 C 4.725 92.738,4.539 92.438,4.436 92.371 C 4.184 92.207,3.500 91.219,3.500 91.019 C 3.500 90.930,3.406 90.755,3.292 90.630 C 2.981 90.291,2.679 89.806,2.457 89.292 C 2.096 88.450,1.667 88.699,1.667 89.750 " stroke="none" fill="#000000" fill-rule="evenodd"></path></g></svg>